<?xml version="1.0" standalone="no"?>
<!DOCTYPE svg PUBLIC "-//W3C//DTD SVG 1.1//EN" "http://www.w3.org/Graphics/SVG/1.1/DTD/svg11.dtd" >
<svg xmlns="http://www.w3.org/2000/svg">
<metadata>Generated by IcoMoon</metadata>
<defs>
<font id="icomoon" horiz-adv-x="1024">
<font-face units-per-em="1024" ascent="896" descent="-128" />
<missing-glyph horiz-adv-x="1024" />
<glyph unicode="&#x20;" d="" />
<glyph unicode="&#x78;" glyph-name="x" horiz-adv-x="1001" d="M281 543q-27-1-53-1h-83q-18 0-36.5-6t-32.5-18.5-23-32-9-45.5v-76h912v41q0 16-0.5 30t-0.5 18q0 13-5 29t-17 29.5-31.5 22.5-49.5 9h-133v-97h-438v97zM955 310v-52q0-23 0.5-52t0.5-58-10.5-47.5-26-30-33-16-31.5-4.5q-14-1-29.5-0.5t-29.5 0.5h-32l-45 128h-439l-44-128h-63q-20 0-45 1-25 0-41 9.5t-25.5 23-13.5 29.5-4 30v167h911zM163 247q-12 0-21-8.5t-9-21.5 9-21.5 21-8.5q13 0 22 8.5t9 21.5-9 21.5-22 8.5zM316 123q-8-26-14-48-5-19-10.5-37t-7.5-25-3-15 1-14.5 9.5-10.5 21.5-4h365q23 0 34 12t2 38q-5 13-9.5 30.5t-9.5 34.5q-5 19-11 39h-368zM336 498v228q0 11 2.5 23t10 21.5 20.5 15.5 34 6h188q31 0 51.5-14.5t20.5-52.5v-227h-327z" />
<glyph unicode="&#xe603;" glyph-name="weixiao" d="M451.52-73.173l7.36 58.773c-204.907 27.307-356.907 203.733-353.6 410.453s160.96 378.24 366.613 398.933 394.347-115.84 438.827-317.76-69.333-405.12-264.64-472.747l-194.56-77.653zM512.427 746.027c-195.52 0-354.453-159.147-354.453-354.667 0-187.413 146.347-342.933 333.013-354.133l29.013-1.707-2.987-23.787 105.387 42.027 0.533 0.427 4.587 1.6c143.253 49.28 239.36 184.107 239.253 335.573 0.107 195.52-158.933 354.667-354.347 354.667zM517.44 172.373c-37.013 0-73.493 8.533-106.667 24.853-31.68 15.68-59.307 38.507-80.747 66.56l43.413 32.96c33.173-43.733 86.933-69.867 144-69.867s110.827 26.133 143.893 69.867l43.413-32.96c-21.44-28.053-49.067-50.88-80.747-66.56-33.067-16.32-69.547-24.853-106.56-24.853zM426.773 480.64l-37.547-29.333c-3.413 4.053-26.987 31.040-65.28 31.040-30.933 0-59.733-17.707-75.2-45.653l-35.84 26.027c18.88 42.773 60.053 71.36 106.133 73.493 67.733 3.093 105.92-52.907 107.733-55.573zM705.707 536.107c46.080-2.133 87.253-30.72 106.133-73.493l-35.84-26.133c-15.467 28.053-44.16 45.653-75.2 45.653-38.293 0-61.867-26.987-65.28-31.040l-37.547 29.44c1.707 2.773 39.893 58.773 107.733 55.573z" />
<glyph unicode="&#xe604;" glyph-name="correct1" d="M512 896c-282.8 0-512-229.2-512-512s229.2-512 512-512c282.832 0 512 229.2 512 512s-229.2 512-512 512zM815.36 525.2c-0.016-0.016-0.016-0.016-0.032-0.032-0.16-0.288-373.6-373.84-373.6-373.84-0.048 0.048-0.096 0.112-0.144 0.16-11.296-8.896-27.584-8.368-38.272 1.632 0 0-0.016-0.016-0.016-0.016l-221.92 221.92c-0.144 0.144 14.304-14.192 14.24-13.984-14.048 16.752-13.2 41.76 2.544 57.52 15.744 15.744 40.72 16.592 57.472 2.592 0.24-0.064-14.080 14.384-13.92 14.224l181.68-181.68c0 0 331.536 331.424 331.824 331.584 0.016 0.016 0.016 0.016 0.032 0.032 16.592 16.592 43.504 16.592 60.112 0 16.592-16.608 16.592-43.52 0-60.112z" />
<glyph unicode="&#xe605;" glyph-name="qian" d="M504.902 841.141c-248.312 0-449.61-200.316-449.61-447.418s201.298-447.418 449.61-447.418 449.61 200.316 449.61 447.418-201.298 447.418-449.61 447.418zM504.902 2.127c-216.273 0-391.596 175.323-391.596 391.596s175.323 391.596 391.596 391.596 391.596-175.323 391.596-391.596-175.324-391.596-391.596-391.596zM668.956 645.543v0c-11.281 11.281-29.741 11.281-41.022 0l-123.572-123.572-122.491 122.491c-11.281 11.281-29.741 11.281-41.022 0v0c-11.281-11.281-11.281-29.741 0-41.022l109.183-109.183h-75.66c-15.954 0-29.007-13.053-29.007-29.007v0c0-15.954 13.053-29.007 29.007-29.007h101.525v-65.806h-101.525c-15.954 0-29.007-13.053-29.007-29.007v0c0-15.954 13.053-29.007 29.007-29.007h101.525v-149.975c0-15.954 13.053-29.007 29.007-29.007v0c15.954 0 29.007 13.053 29.007 29.007v149.973h101.525c15.954 0 29.007 13.053 29.007 29.007v0c0 15.954-13.053 29.007-29.007 29.007h-101.525v65.806h101.525c15.954 0 29.007 13.053 29.007 29.007v0c0 15.954-13.053 29.007-29.007 29.007h-76.743l110.264 110.264c11.281 11.284 11.281 29.743 0 41.024z" />
<glyph unicode="&#xe606;" glyph-name="ditie" d="M934.012-94.642l-124.121 177.648c20.17 10.085 37.236 24.048 51.2 42.667 20.945 26.376 31.030 57.406 31.030 92.315v457.697c0 20.945-4.655 41.115-13.188 58.958-8.533 16.291-18.618 31.806-31.806 44.218-12.412 12.412-26.376 24.048-41.115 34.133-13.964 9.309-27.927 17.842-41.115 24.824s-27.927 14.739-42.667 20.945c-15.515 7.758-34.133 13.964-55.079 19.394s-44.994 10.085-72.145 13.188c-27.152 3.103-58.958 4.655-94.642 4.655-31.030 0-58.958-1.552-83.006-4.655s-44.994-6.206-62.836-10.861c-18.618-4.655-34.909-10.085-48.873-15.515-12.412-5.43-24.048-10.861-34.909-15.515-11.636-5.43-24.824-13.188-40.339-23.273s-30.255-23.273-44.994-37.236c-14.739-16.291-27.152-32.582-37.236-50.424-10.861-19.394-17.067-40.339-17.067-62.061v-457.697c0-34.909 10.085-65.164 30.255-92.315 13.964-18.618 31.030-33.358 51.2-43.442l-122.57-177.648c-4.655-6.206-4.655-14.739-1.552-21.721 3.879-6.982 10.861-11.636 18.618-11.636h134.982c8.533 0 15.515 4.655 19.394 12.412l22.497 51.2h455.37l22.497-51.2c3.103-7.758 10.861-12.412 19.394-12.412h134.982c7.758 0 14.739 4.655 18.618 11.636s3.103 14.739-0.776 21.721zM795.152-86.109l-22.497 51.2c-3.103 7.758-10.861 12.412-19.394 12.412h-483.297c-8.533 0-15.515-4.655-19.394-12.412l-22.497-51.2h-80.679l114.812 166.788c3.879 5.43 4.655 12.412 2.327 19.394-2.327 6.206-7.758 11.636-13.964 13.188-22.497 6.206-41.115 19.394-55.855 38.788s-21.721 41.115-21.721 66.715v457.697c0 14.739 3.879 27.927 11.636 41.115 8.533 14.739 18.618 28.703 31.030 40.339 12.412 12.412 25.6 23.273 38.788 32.582s24.824 15.515 34.133 20.17c10.085 4.655 21.721 10.085 34.133 15.515 11.636 4.655 25.6 9.309 41.115 13.188 17.067 4.655 36.461 7.758 58.182 10.085s48.097 3.879 78.352 3.879c34.133 0 63.612-1.552 89.212-4.655s48.097-6.982 66.715-11.636c18.618-4.655 34.909-10.861 48.873-17.067s27.927-13.188 39.564-19.394c12.412-6.982 24.824-14.739 38.788-23.273 12.412-8.533 24.048-17.842 34.133-27.927 9.309-10.085 17.842-20.945 24.048-34.133 6.206-11.636 8.533-24.824 8.533-39.564v-457.697c0-25.6-6.982-47.321-22.497-66.715-14.739-19.394-33.358-31.806-56.63-38.788-6.206-1.552-11.636-6.982-13.964-13.188s-1.552-13.188 2.327-19.394l116.364-166.788h-80.679zM413.479 705.939h198.594c14.739 0 27.927 5.43 38.012 15.515s15.515 23.273 15.515 38.012c0 15.515-5.43 28.703-15.515 38.788s-23.273 15.515-38.012 15.515h-198.594c-14.739 0-27.927-5.43-38.012-15.515s-15.515-23.273-15.515-38.788c0-14.739 5.43-27.927 15.515-38.012s23.273-15.515 38.012-15.515zM405.721 768.776c2.327 2.327 4.655 3.103 7.758 3.103h198.594c3.103 0 5.43-0.776 7.758-3.103 1.552-1.552 3.103-3.879 3.103-9.309 0-3.879-0.776-5.43-3.103-7.758s-4.655-3.103-7.758-3.103h-198.594c-3.103 0-5.43 0.776-7.758 3.103s-3.103 4.655-3.103 7.758 1.552 7.758 3.103 9.309zM217.212 437.527h588.8c11.636 0 20.945 9.309 20.945 20.945v197.042c0 11.636-9.309 20.945-20.945 20.945h-588.8c-11.636 0-20.945-9.309-20.945-20.945v-196.267c0-12.412 9.309-21.721 20.945-21.721zM238.158 633.794h546.133v-154.376h-546.133v154.376zM331.248 207.127c0 18.618-6.982 35.685-19.394 48.097-13.188 13.188-29.479 19.394-47.321 19.394-18.618 0-35.685-6.982-48.097-19.394-13.188-13.188-19.394-29.479-19.394-48.097 0-17.842 6.982-34.133 19.394-47.321 13.188-13.188 29.479-19.394 48.097-19.394 17.842 0 34.133 6.982 47.321 19.394 12.412 12.412 19.394 29.479 19.394 47.321zM281.6 189.285c-5.43-5.43-10.861-7.758-17.842-7.758-7.758 0-13.188 2.327-18.618 7.758s-7.758 10.861-7.758 17.842c0 7.758 2.327 13.188 7.758 18.618s10.861 7.758 18.618 7.758c6.982 0 12.412-2.327 17.842-7.758s7.758-10.861 7.758-18.618c-0.776-6.982-2.327-12.412-7.758-17.842zM712.921 96.194c-3.103 7.758-10.861 12.412-19.394 12.412h-363.83c-8.533 0-15.515-4.655-19.394-12.412l-30.255-65.939c-3.103-6.206-2.327-13.964 1.552-20.17s10.861-10.085 17.842-10.085h423.564c6.982 0 13.964 3.879 17.842 9.309 3.879 6.206 4.655 13.188 1.552 20.17l-29.479 66.715zM332.8 42.667l10.861 24.048h336.679l10.861-24.048h-358.4zM806.788 159.806c13.188 13.188 19.394 29.479 19.394 47.321 0 18.618-6.982 35.685-19.394 48.097-13.188 13.188-29.479 19.394-48.097 19.394s-35.685-6.982-48.097-19.394c-13.188-13.188-19.394-29.479-19.394-48.097 0-17.842 6.982-34.133 19.394-47.321 13.188-13.188 29.479-19.394 48.097-19.394 18.618-0.776 35.685 6.206 48.097 19.394zM732.315 207.127c0 7.758 2.327 13.188 7.758 18.618s10.861 7.758 18.618 7.758 13.188-2.327 18.618-7.758 7.758-10.861 7.758-18.618c0-6.982-2.327-12.412-7.758-17.842s-10.861-7.758-18.618-7.758-13.188 2.327-18.618 7.758-7.758 10.861-7.758 17.842z" />
<glyph unicode="&#xe60e;" glyph-name="tongzhi" d="M238.933 622.933h-238.933v-477.867h238.933l443.733-238.933v955.733l-443.733-238.933zM68.267 554.667h170.667v-341.333h-170.667v341.333zM614.4 18.773l-307.2 163.84v399.36l307.2 163.84v-727.040zM805.547 237.227c-6.827 6.827-13.653 6.827-20.48 6.827-10.24 0-17.067-3.413-23.893-10.24v-3.413c-10.24-13.653-10.24-34.133 3.413-47.787l157.013-136.533c6.827-6.827 13.653-6.827 20.48-6.827 10.24 0 17.067 3.413 23.893 10.24v3.413c10.24 13.653 10.24 34.133-3.413 47.787l-157.013 136.533zM785.067 554.667c6.827 0 17.067 3.413 20.48 6.827l157.013 133.12c13.653 13.653 17.067 34.133 3.413 47.787-6.827 6.827-17.067 10.24-27.307 10.24-6.827 0-17.067-3.413-20.48-6.827l-157.013-133.12c-13.653-13.653-17.067-34.133-3.413-47.787 10.24-6.827 17.067-10.24 27.307-10.24zM1024 384c0 17.067-13.653 34.133-34.133 34.133h-204.8c-17.067 0-34.133-13.653-34.133-34.133v0c0-17.067 13.653-34.133 34.133-34.133h204.8c20.48 0 34.133 13.653 34.133 34.133v0z" />
<glyph unicode="&#xe614;" glyph-name="qianbao" d="M750.55 581.441c-14.462 8.337-29.752 15.284-44.676 22.886 2.947 3.317 5.507 5.647 8.028 8.018 25.902 24.377 49.157 52.578 61.31 85.848 5.892 16.129 7.347 23.147 11.436 38.122 7.611 47.279-1.137 76.026-29.665 99.92-38.553 32.294-82.296 36.118-128.504 17.16-3.206-1.314-5.333-2.274-8.528 0.704-59.474 55.404-154.954 55.921-214.839 1.218-2.798-2.556-4.814-3.202-8.446-1.555-24.301 11.013-49.699 13.371-75.771 8.064-49.404-10.059-90.273-51.462-83.022-108.005 6.292-49.059 25.594-91.512 58.872-128.107 6.83-7.511 14.090-14.645 21.439-22.247-1.832-0.874-3.646-1.789-5.493-2.622-169.983-76.571-284.804-242.944-298.249-432.188-3.718-52.331-5.389-99.262 12.729-155.462 25.605-79.424 93.19-141.389 179.854-141.192 204.228 0.464 408.46-0.047 612.688 0.263 65.608 0.1 116.119 29.108 152.763 81.929 18.627 26.851 25.367 57.738 32.41 89.285 2.87 12.854 6.209-12.294 6.209 42.221s-1.137 121.45-16.607 178.326c-37.589 138.186-118.090 244.865-243.941 317.416zM958.776 81.357c-4.48-29.182-9.324-59.783-25.773-84.314-32.36-48.257-94.358-74.759-152.296-74.851-180.355-0.283-360.714 0.184-541.068-0.24-76.534-0.179-148.719 42.405-167.271 116.252-11.779 46.883-10.507 105.535-7.223 153.344 11.875 172.893 168.305 335.934 318.416 405.888 1.632 0.761-43.265 40.121-49.298 46.983-29.389 33.432-47.741 60.506-53.297 105.325-6.822 55.026 34.328 71.263 59.231 76.509 23.025 4.851 71.901-19.709 74.372-17.373 52.884 49.977 137.202 49.504 189.725-1.113 2.821-2.721 4.7-1.844 7.531-0.643 40.807 17.319 75.316 27.997 109.363-1.507 25.194-21.831 25.782-38.049 19.603-72.327-3.756-14.227-27.056-52.261-35.953-64.047-32.878-43.552-65.058-71.346-67.276-73.52-0.239-0.234 70.273-33.332 82.062-42.314 108.849-82.924 182.231-147.062 215.426-273.308 17.44-66.326 34.143-130.873 23.725-198.746zM446.384 436.317c-8.385 8.85-33.851 35.035-33.851 35.035h-49.951s0.168-17.075 0.168-22.16c0-5.085 124.528-127.701 124.528-127.701h-124.696v-49.881h124.696v-50.25h-124.528v-49.585h124.71v-99.97h49.951l-0.447 99.97h125.325v49.884h-124.878l-0.447 49.951h125.158v49.881h-125.158l125.158 127.701v22.16h-49.783s-43.375-41.956-52.863-52.398c-3.955-3.339-32.786-34.137-47.043-48.299l-66.049 65.661z" />
<glyph unicode="&#xe619;" glyph-name="liwuhe" d="M513.096 606.253l-5.946 9.014-251.556-0.902-5.864 5.227c-11.086 9.882-19.656 21.534-25.472 34.635-6.136 13.821-9.247 29.369-9.247 46.213 0 26.912 8.71 51.717 24.524 69.846 9.313 10.676 20.916 18.964 34.484 24.631 14.221 5.94 30.576 8.951 48.612 8.951 42.18 0 85.228-18.875 127.946-56.101 15.742-13.719 31.364-29.9 46.431-48.096 5.482-6.621 10.834-13.433 16.027-20.396 16.105 21.842 36.982 46.797 61.342 68.381 42.098 37.3 84.825 56.213 126.992 56.213 18.035 0 34.39-3.012 48.611-8.951 13.569-5.668 25.171-13.955 34.484-24.631 15.815-18.13 24.525-42.935 24.525-69.846 0-16.15-2.8-31.112-8.323-44.469-5.284-12.779-13.105-24.227-23.247-34.026l-5.931-5.73-252.424-0.906-5.97-9.057zM322.631 762.851c-23.325 0-40.882-6.57-52.186-19.528-9.296-10.657-14.416-25.886-14.416-42.882 0-18.386 5.162-33.182 15.742-44.999l207.285 0.744c-13.912 18.501-32.95 41.069-55.429 60.657-16.493 14.373-33.010 25.554-49.093 33.234-17.749 8.476-35.212 12.773-51.904 12.773zM701.37 762.851c-31.844 0-65.419-15.442-99.79-45.896-21.336-18.905-39.878-40.933-54.427-60.525l207.015 0.743c9.276 11.491 13.803 25.724 13.803 43.268 0 16.995-5.12 32.224-14.417 42.882-11.304 12.958-28.861 19.528-52.184 19.528zM921.629 404.451h-819.259v163.869c0 11.054 2.17 21.788 6.449 31.905 4.128 9.761 10.035 18.523 17.554 26.042s16.281 13.426 26.042 17.554c10.116 4.279 20.851 6.448 31.905 6.448h655.36c11.054 0 21.788-2.17 31.905-6.448 9.761-4.128 18.523-10.035 26.042-17.554s13.425-16.281 17.554-26.042c4.279-10.116 6.448-20.851 6.448-31.905v-163.869zM143.389 445.469h737.221v122.851c0 22.569-18.361 40.931-40.931 40.931h-655.36c-22.569 0-40.931-18.361-40.931-40.931v-122.851zM798.72 35.811h-573.44c-11.054 0-21.788 2.17-31.905 6.448-9.761 4.129-18.523 10.035-26.042 17.554s-13.426 16.282-17.554 26.042c-4.279 10.116-6.448 20.851-6.448 31.905v315.241h41.019v-315.241c0-22.569 18.361-40.931 40.931-40.931h573.44c22.569 0 40.931 18.362 40.931 40.931v311.311h41.019v-311.311c0-11.054-2.17-21.788-6.448-31.905-4.129-9.761-10.035-18.523-17.554-26.042s-16.281-13.425-26.042-17.554c-10.116-4.279-20.851-6.448-31.905-6.448z" />
<glyph unicode="&#xe61a;" glyph-name="gongzuojingli" d="M863.054 639.85h-117.849v45.197c0 56.914-46.303 103.217-103.217 103.217h-259.977c-56.914 0-103.217-46.304-103.217-103.217v-45.197h-117.85c-56.914 0-103.217-46.304-103.217-103.217v-452.77c0-56.914 46.304-103.217 103.217-103.217h702.11c56.914 0 103.217 46.303 103.217 103.217v452.77c0.001 56.914-46.302 103.217-103.217 103.217zM340.193 685.047c0 23.059 18.76 41.818 41.818 41.818h259.977c23.058 0 41.818-18.76 41.818-41.818v-45.197h-343.614v45.197zM160.945 578.452h702.11c23.059 0 41.818-18.76 41.818-41.818v-173.020h-124.828c-0.363 24.626-20.606 44.662-45.315 44.662v0c-24.708 0-44.952-20.036-45.315-44.662h-354.83c-0.363 24.626-20.606 44.662-45.315 44.662v0c-24.708 0-44.952-20.036-45.315-44.662h-124.828v173.020c0 23.059 18.76 41.818 41.818 41.818zM863.054 42.045h-702.11c-23.059 0-41.818 18.759-41.818 41.818v218.352h124.812v-44.662c0-24.933 20.4-45.331 45.331-45.331v0c24.933 0 45.331 20.4 45.331 45.331v44.662h354.797v-44.662c0-24.933 20.4-45.331 45.331-45.331v0c24.933 0 45.331 20.4 45.331 45.331v44.662h124.812v-218.352c0.002-23.059-18.757-41.818-41.817-41.818z" />
<glyph unicode="&#xe626;" glyph-name="yinsi1" d="M299.3 385.1c0 116.7 94.9 211.3 211.9 211.3s211.9-94.6 211.9-211.3c0-116.7-94.9-211.3-211.9-211.3s-211.9 94.6-211.9 211.3zM991.5 457.2c-79.2 100-271.3 266.2-480.3 266.2-209.6 0-401.7-166.2-480.3-266.2-18-22.6-27.4-47.3-27.9-72.1 0.6-24.7 10.5-49.5 27.9-72.1 78.6-100 270.7-266.2 480.3-266.2s401.1 166.2 480.3 266.3c18 22.6 27.9 47.3 28.5 72.1-1.1 24.6-10.5 49.4-28.5 72zM383.7 385.1c0-69.9 57.1-126.9 126.9-126.9s126.9 57 126.9 126.9v1.1c-13.4-14-32-22-53-22-40.8 0-73.9 33.3-73.9 74.2 0 29.6 17.5 54.8 41.9 66.7-13.4 4.8-27.4 7-41.9 7-69.8-0.1-126.9-57.1-126.9-127z" />
<glyph unicode="&#xe641;" glyph-name="sousuo" d="M1011.143-51.428l-248.377 253.724c-4.096 4.21-8.875 7.396-13.881 9.557 53.362 71.566 84.992 160.996 84.992 257.934 0.114 235.406-186.596 426.212-416.882 426.212s-416.996-190.805-416.996-426.098c0-235.406 186.709-426.098 416.996-426.098 105.7 0 202.183 40.164 275.684 106.382 2.048-4.096 4.665-7.851 8.078-11.264l248.263-253.724c17.067-17.522 44.942-17.522 62.123 0 17.18 17.408 17.18 45.966 0 63.374zM416.996 111.047c-193.991 0-351.232 160.654-351.232 358.855s157.241 358.855 351.232 358.855c193.877 0 351.232-160.654 351.232-358.855-0.114-198.201-157.355-358.855-351.232-358.855z" />
<glyph unicode="&#xe648;" glyph-name="loading" d="M550.968 740.859c0-0.005 0-0.011 0-0.017 0-85.673-69.451-155.124-155.124-155.124v0c-85.689 0-155.141 69.452-155.141 155.141s69.452 155.141 155.141 155.141c85.673 0 155.124-69.451 155.124-155.124 0-0.006 0-0.012 0-0.018v0.001M282.912 437.029c0-72.983-59.165-132.148-132.148-132.148-0.006 0-0.012 0-0.018 0h0.001c-72.974 0-132.131 59.158-132.131 132.148s59.158 132.148 132.131 132.148c0.005 0 0.011 0 0.017 0 72.983 0 132.148-59.165 132.148-132.148v0M378.659 96.559c0-67.046-54.351-121.397-121.397-121.397s-121.397 54.351-121.397 121.397v0c0 67.046 54.351 121.397 121.397 121.397s121.397-54.351 121.397-121.397v0M664.813-24.838c0-56.965-46.18-103.145-103.145-103.145-0.006 0-0.012 0-0.018 0h0.001c-56.961 0.006-103.135 46.183-103.135 103.145s46.174 103.139 103.134 103.145h0.001c0.005 0 0.011 0 0.017 0 56.965 0 103.145-46.18 103.145-103.145v0M908.098 96.559c0.011-0.517 0.017-1.127 0.017-1.738 0-49.279-39.949-89.228-89.228-89.228s-89.228 39.949-89.228 89.228c0 0.611 0.006 1.221 0.018 1.829l-0.001-0.091c0.975 48.526 40.543 87.489 89.211 87.489s88.235-38.964 89.209-87.398l0.001-0.091M1005.351 318.375c0-41.565-33.695-75.259-75.259-75.259s-75.259 33.695-75.259 75.259v0c0 41.565 33.695 75.259 75.259 75.259s75.259-33.695 75.259-75.259v0M957.842 534.349c0-30.315-24.576-54.891-54.891-54.891s-54.891 24.576-54.891 54.891v0c0 30.315 24.576 54.891 54.891 54.891s54.891-24.576 54.891-54.891v0M819.615 685.985c0-0.003 0-0.006 0-0.008 0-23.204-18.811-42.015-42.015-42.015-23.201 0-42.010 18.806-42.015 42.006v0c0 0.003 0 0.006 0 0.008 0 23.204 18.811 42.015 42.015 42.015 23.201 0 42.010-18.806 42.015-42.006v0" />
<glyph unicode="&#xe64b;" glyph-name="fenxiang" d="M736 463.84h-112v-32h112c8.816 0 16-7.152 16-15.936v-335.264c0-8.784-7.184-15.92-16-15.92h-448c-8.816 0-16 7.136-16 15.92v335.28c0 8.784 7.184 15.936 16 15.936h112v32h-112c-26.464 0-48-21.504-48-47.936v-335.264c0-26.416 21.536-47.92 48-47.92h448c26.464 0 48 21.504 48 47.92v335.264c0 26.416-21.536 47.92-48 47.92zM496 687.6v-466h32v466.592l149.024-140.256 21.936 23.296-164.352 154.672c-12.448 12.432-32.736 12.448-44.896 0.32l-164.688-154.992 21.936-23.296 149.040 139.664z" />
<glyph unicode="&#xe65a;" glyph-name="fenxiang1" d="M834.559 379.933c-12.965 0-23.476-10.513-23.476-23.478v-221.94c0-28.48-23.171-51.65-51.65-51.65h-495.388c-28.481 0-51.647 23.171-51.647 51.65v466.040c0 28.48 23.167 51.644 51.647 51.644h161.474c12.962 0 23.472 10.514 23.472 23.483 0 12.961-10.509 23.475-23.472 23.475h-161.474c-54.366 0-98.601-44.231-98.601-98.601v-466.040c0-54.37 44.234-98.601 98.601-98.601h495.388c54.373 0 98.601 44.231 98.601 98.601v221.938c0 12.965-10.506 23.479-23.475 23.479v0 0zM341.91 242.366c-2.333-12.756 6.113-24.988 18.866-27.321 1.429-0.264 2.851-0.389 4.255-0.389 11.114 0 20.989 7.927 23.065 19.25 0.179 0.986 18.804 99.722 83.634 197.881 37.722 57.122 83.436 102.544 135.867 135.010 50.047 30.99 106.611 50.279 168.732 57.636l-76.429-78.851c-9.025-9.31-8.791-24.174 0.52-33.197 4.556-4.418 10.446-6.62 16.332-6.62 6.134 0 12.259 2.387 16.859 7.14l118.323 122.075c0.088 0.088 0.166 0.182 0.253 0.277 0.122 0.125 0.24 0.254 0.358 0.385 0.129 0.142 0.257 0.291 0.386 0.439 0.016 0.019 0.034 0.044 0.053 0.060 0.115 0.145 0.233 0.283 0.348 0.426 0.126 0.152 0.253 0.311 0.368 0.47 0.115 0.145 0.223 0.294 0.338 0.442 0.128 0.179 0.257 0.361 0.385 0.54 0.082 0.122 0.166 0.247 0.247 0.368s0.166 0.243 0.24 0.368c0.027 0.040 0.053 0.087 0.087 0.135 0.017 0.031 0.037 0.068 0.058 0.101 0.075 0.119 0.145 0.239 0.22 0.358 0.118 0.213 0.239 0.419 0.358 0.625 0.068 0.121 0.128 0.239 0.192 0.358 0.025 0.044 0.048 0.091 0.071 0.135 0.085 0.169 0.176 0.342 0.26 0.51 0.068 0.142 0.135 0.287 0.203 0.429 0.095 0.199 0.182 0.392 0.27 0.595 0.071 0.159 0.131 0.32 0.199 0.486 0.078 0.186 0.148 0.368 0.22 0.551 0.068 0.186 0.136 0.368 0.2 0.554 0.057 0.17 0.115 0.338 0.169 0.503 0.068 0.204 0.129 0.409 0.189 0.611 0.044 0.163 0.087 0.318 0.131 0.48 0.060 0.209 0.115 0.426 0.163 0.642 0.031 0.129 0.064 0.257 0.094 0.389 0.010 0.036 0.014 0.077 0.024 0.111 0.044 0.204 0.085 0.409 0.125 0.615 0.019 0.119 0.044 0.237 0.068 0.355 0.013 0.094 0.027 0.181 0.044 0.276 0.024 0.162 0.044 0.32 0.071 0.482 0.013 0.105 0.030 0.214 0.044 0.318 0.019 0.155 0.037 0.3 0.053 0.455 0.010 0.088 0.017 0.179 0.024 0.264 0.010 0.081 0.017 0.155 0.025 0.236 0.003 0.047 0.007 0.092 0.013 0.135 0.013 0.207 0.028 0.409 0.041 0.615 0 0.031 0 0.064 0.003 0.095 0.003 0.125 0.010 0.25 0.013 0.375 0 0 0 0.010 0.003 0.014 0.007 0.25 0.010 0.496 0.010 0.75v0.024c0 0.389-0.010 0.766-0.028 1.151-0.003 0.034-0.003 0.064-0.009 0.095-0.003 0.075-0.003 0.145-0.007 0.213v0.016c-0.017 0.274-0.041 0.538-0.068 0.804-0.010 0.078-0.020 0.159-0.028 0.236v0.003c-0.006 0.041-0.006 0.082-0.009 0.122-0.031 0.243-0.061 0.483-0.098 0.727-0.013 0.104-0.027 0.209-0.043 0.314-0.007 0.044-0.014 0.085-0.025 0.129-0.031 0.206-0.071 0.408-0.108 0.611-0.027 0.131-0.053 0.266-0.081 0.398 0 0.019-0.006 0.040-0.013 0.057-0.007 0.044-0.017 0.085-0.025 0.125-0.034 0.151-0.071 0.3-0.104 0.449-0.057 0.247-0.121 0.493-0.188 0.74-0.028 0.094-0.054 0.188-0.081 0.28-0.081 0.287-0.169 0.574-0.264 0.858-0.016 0.053-0.037 0.108-0.053 0.162-0.068 0.2-0.129 0.402-0.207 0.605-0.006 0.019-0.016 0.043-0.027 0.068-0.031 0.087-0.068 0.172-0.101 0.257-0.010 0.034-0.024 0.060-0.037 0.091-0.081 0.209-0.162 0.422-0.247 0.628-0.051 0.115-0.108 0.232-0.159 0.348-0.003 0.010-0.007 0.019-0.007 0.019-0.097 0.22-0.188 0.43-0.29 0.639 0 0-0.007 0.009-0.007 0.013-0.22 0.459-0.459 0.906-0.71 1.352v0.003c-0.182 0.317-0.37 0.631-0.564 0.946-0.019 0.031-0.044 0.064-0.060 0.094-0.112 0.176-0.223 0.354-0.342 0.527l-0.024 0.034c-0.058 0.085-0.115 0.17-0.179 0.26-0.060 0.088-0.131 0.182-0.2 0.276-0.050 0.069-0.101 0.139-0.148 0.207-0.051 0.068-0.095 0.135-0.145 0.195-0.047 0.068-0.098 0.136-0.152 0.204-0.119 0.162-0.25 0.317-0.376 0.476-0.068 0.081-0.131 0.159-0.199 0.24-0.034 0.050-0.075 0.094-0.108 0.145-0.163 0.182-0.327 0.368-0.49 0.55-0.043 0.051-0.084 0.098-0.131 0.145-0.223 0.251-0.455 0.49-0.693 0.73-0.019 0.020-0.041 0.041-0.063 0.061-0.25 0.253-0.507 0.499-0.771 0.739-0.013 0.010-0.024 0.017-0.031 0.027-0.269 0.243-0.537 0.477-0.817 0.703-0.014 0.013-0.031 0.027-0.044 0.041-0.264 0.216-0.533 0.429-0.807 0.631-0.037 0.027-0.071 0.060-0.111 0.088-0.248 0.182-0.497 0.358-0.754 0.53-0.071 0.053-0.144 0.104-0.219 0.156-0.126 0.084-0.251 0.169-0.382 0.25-0.097 0.068-0.203 0.125-0.304 0.188-0.115 0.071-0.23 0.142-0.345 0.21-0.104 0.060-0.203 0.125-0.304 0.185-0.115 0.061-0.226 0.119-0.338 0.182-0.135 0.075-0.273 0.148-0.409 0.22-0.195 0.108-0.392 0.207-0.59 0.304-0.152 0.078-0.304 0.145-0.456 0.216-0.188 0.087-0.378 0.176-0.564 0.254-0.172 0.078-0.348 0.148-0.521 0.216-0.169 0.071-0.344 0.145-0.52 0.206-0.192 0.078-0.385 0.142-0.584 0.213-0.156 0.058-0.317 0.112-0.473 0.159-0.104 0.037-0.203 0.068-0.307 0.098l-172.326 57.132c-12.309 4.083-25.595-2.59-29.672-14.893-4.080-12.31 2.59-25.593 14.894-29.673l69.311-22.978c-50.945-11.010-98.22-29.929-141.339-56.622-58.254-36.076-108.834-86.221-150.33-149.053-70.050-106.077-89.827-210.891-90.634-215.303v0 0zM341.91 242.366" />
<glyph unicode="&#xe65c;" glyph-name="qiwanggongzuo" d="M877.072-139.995l-728.694-1.441c-42.382-0.084-76.823 34.176-76.907 76.549l-1.136 575.323c-0.084 42.413 34.221 76.853 76.606 76.938l230.155 0.452 0.076-38.378-230.156-0.454c-21.136-0.041-38.271-17.234-38.231-38.481l1.136-575.324c0.043-21.163 17.247-38.286 38.382-38.245l728.693 1.44c21.122 0.041 38.329 17.232 38.288 38.396l-1.137 575.322c-0.042 21.207-17.319 38.373-38.438 38.33l-230.101-0.454-0.075 38.336 230.101 0.453c42.385 0.084 76.81-34.205 76.894-76.634l1.137-575.277c0.081-42.371-34.208-76.767-76.593-76.851v0 0zM588.559 319.695l191.722 0.38c10.654 0.021 19.229-8.548 19.249-19.173s-8.521-19.171-19.174-19.191l-191.722-0.38c-10.667-0.021-19.225 8.49-19.248 19.115-0.020 10.625 8.505 19.227 19.173 19.248v0 0zM589.012 89.521l76.746 0.151c10.595 0.020 19.156-8.534 19.176-19.129 0.021-10.626-8.506-19.212-19.102-19.234l-76.743-0.15c-10.667-0.021-19.228 8.532-19.249 19.157 0.024 10.595 8.508 19.184 19.173 19.204v0 0zM588.784 204.616l191.725 0.377c10.653 0.023 19.228-8.548 19.249-19.172 0.019-10.581-8.52-19.226-19.174-19.247l-191.722-0.379c-10.667-0.021-19.227 8.59-19.248 19.171 0.020 10.668 8.505 19.228 19.17 19.25v0 0zM358.236 395.954c63.604 0.126 115.186-68.503 115.353-153.159 0.064-32.276-7.33-62.127-20.045-86.848 23.442-13.105 39.529-37.812 39.586-66.571 0.086-42.384-34.291-76.827-76.59-76.909l-115.049-0.228c-42.385-0.085-76.725 34.222-76.81 76.606-0.057 28.759 15.76 53.53 39.241 66.727-12.801 24.671-20.412 54.491-20.476 86.769-0.108 84.656 51.272 153.487 114.791 153.614v0 0zM358.311 357.619c-42.385-0.084-76.57-51.725-76.444-115.202 0.125-63.563 34.514-115.010 76.898-114.928 42.385 0.084 76.657 51.668 76.53 115.229-0.123 63.449-34.643 114.985-76.984 114.9v0 0zM262.962 88.878c0.041-21.166 17.246-38.301 38.452-38.259l115.051 0.227c21.207 0.042 38.33 17.247 38.289 38.412-0.032 15.635-9.434 28.983-22.84 34.957-19.844-21.918-45.274-35.093-73.070-35.15-27.712-0.055-53.194 13.021-73.122 34.86-13.4-6.025-22.792-19.411-22.759-35.047v0 0zM626.549 473.199l-230.088-0.454c-10.581-0.021-19.154 8.534-19.176 19.13-0.021 10.581 8.52 19.184 19.101 19.205l19.196 0.039-0.075 38.364-0.075 38.377-0.038 19.124-0.076 38.382c-0.105 52.935 42.657 95.965 95.692 96.069 52.939 0.105 95.968-42.756 96.073-95.692l0.075-38.379 0.038-19.124 0.076-38.379 0.075-38.408 19.212 0.039c10.582 0.020 19.227-8.548 19.249-19.129 0.019-10.596-8.663-19.141-19.26-19.163v0 0zM568.936 549.786l-0.076 38.377-0.038 19.127-0.075 38.379c-0.064 31.758-25.902 57.494-57.69 57.432-31.801-0.062-57.467-25.901-57.403-57.659l0.075-38.38 0.038-19.126 0.075-38.377 0.077-38.408 115.051 0.227-0.076 38.408h0.042zM511.211 626.385c-10.596-0.019-19.157 8.549-19.179 19.132-0.021 10.553 8.507 19.185 19.102 19.206 10.655 0.020 19.229-8.55 19.25-19.129 0.019-10.584-8.52-19.186-19.174-19.21v0 0zM511.211 626.385" />
<glyph unicode="&#xe661;" glyph-name="shezhi" horiz-adv-x="1026" d="M895.989 256.011c70.587 0 127.989 57.434 127.989 128 0 70.587-57.403 127.989-127.989 127.989h-22.188c-5.409 15.348-10.61 27.693-16.413 39.692l1.007-2.308 15.627 15.649c23.089 23.021 37.374 54.86 37.374 90.036 0 0.163 0 0.327-0.001 0.49v-0.025c0 34.277-13.279 66.406-37.373 90.5-24.094 24.126-56.255 37.373-90.5 37.373-34.256 0-66.417-13.248-90.511-37.373l-15.617-15.627c-9.725 4.815-22.081 10.017-34.747 14.569l-2.668 0.837v22.188c0 70.597-57.392 128-127.989 128-70.587 0-127.989-57.403-127.989-128v-22.188c-15.347-5.399-27.703-10.6-39.711-16.408l2.296 1.001-15.627 15.627c-24.084 24.126-56.244 37.373-90.49 37.373-34.256 0-66.406-13.248-90.5-37.373-23.088-23.013-37.374-54.845-37.374-90.014 0-0.171 0-0.342 0.001-0.513v0.026c0-34.246 13.279-66.406 37.373-90.5l15.617-15.617c-4.792-9.697-9.99-22.053-14.547-34.715l-0.849-2.7h-22.188c-70.597 0-128-57.403-128-127.989 0-70.566 57.403-128 128-128h22.188c5.401-15.351 10.599-27.704 16.4-39.71l-1.004 2.305-15.617-15.627c-24.094-24.094-37.373-56.223-37.373-90.5s13.279-66.417 37.373-90.5c23.027-23.095 54.874-37.385 90.059-37.385 0.155 0 0.31 0 0.465 0.001h-0.024c34.246 0 66.406 13.3 90.49 37.384l15.627 15.617c9.649-4.762 22.004-9.963 34.66-14.536l2.756-0.87v-22.178c0-70.555 57.403-128 127.989-128 70.597 0 127.989 57.445 127.989 128v22.178c15.356 5.418 27.711 10.629 39.719 16.444l-2.304-1.006 15.617-15.649c23.030-23.095 54.88-37.385 90.068-37.385 0.156 0 0.311 0 0.467 0.001h-0.024c34.246 0 66.406 13.3 90.5 37.384s37.373 56.223 37.373 90.5-13.279 66.406-37.373 90.5l-15.627 15.659c4.792 9.683 9.993 22.024 14.555 34.671l0.851 2.702h22.188zM828.762 157.728c11.509-11.473 18.63-27.343 18.63-44.875 0-0.132 0-0.263-0.001-0.395v0.020c0.001-0.098 0.001-0.215 0.001-0.331 0-17.546-7.12-33.429-18.629-44.918l-0.001-0.001c-24.052-24.031-66.438-24.031-90.5 0l-49.283 49.315-21.124-11.847c-19.656-11.172-42.419-20.816-66.335-27.745l-2.262-0.561-23.273-6.603v-69.776c-0.054-35.325-28.679-63.947-64.001-63.995h-0.005c-35.324 0.048-63.947 28.671-63.995 63.99v69.781l-23.283 6.603c-26.174 7.48-48.938 17.125-70.188 29.134l1.592-0.827-21.124 11.815-49.283-49.283c-24.063-24.031-66.427-24.031-90.49 0-11.509 11.489-18.63 27.373-18.63 44.919 0 0.116 0 0.233 0.001 0.349v-0.018c0 17.186 6.592 33.256 18.629 45.25l49.273 49.283-11.836 21.124c-11.17 19.666-20.807 42.44-27.726 66.369l-0.559 2.26-6.592 23.252h-69.776c-35.288 0-64.005 28.728-64.005 64.005s28.717 63.995 64.005 63.995h69.776l6.592 23.283c7.476 26.175 17.113 48.939 29.113 70.191l-0.828-1.595 11.836 21.124-49.273 49.273c-11.51 11.491-18.63 27.376-18.63 44.923 0 0.115 0 0.23 0.001 0.345v-0.018c0 17.186 6.592 33.256 18.629 45.25 24.063 24.031 66.438 24.031 90.49 0l49.283-49.273 21.124 11.836c19.658 11.175 42.423 20.813 66.343 27.727l2.254 0.558 23.283 6.592v69.776c0.036 35.331 28.665 63.963 63.991 64.005h0.004c35.332-0.042 63.963-28.673 64.005-64.001v-69.78l23.273-6.592c24.22-6.877 47.272-16.375 68.597-28.317l21.124-11.805 49.283 49.273c24.063 24.031 66.448 24.031 90.5 0 11.509-11.473 18.63-27.343 18.63-44.875 0-0.132 0-0.263-0.001-0.395v0.020c0.001-0.097 0.001-0.212 0.001-0.327 0-17.548-7.12-33.432-18.629-44.922l-49.253-49.274 11.773-21.124c11.199-19.662 20.848-42.426 27.761-66.352l0.555-2.245 6.592-23.283h69.787c35.278 0 63.995-28.717 63.995-63.995s-28.728-64.005-63.995-64.005h-69.787l-6.592-23.252c-7.478-26.185-17.126-48.96-29.143-70.218l0.826 1.589-11.773-21.124 49.252-49.283zM511.989 576.005c-105.875 0-191.995-86.12-191.995-191.995s86.12-192.005 191.995-192.005c105.875 0 191.984 86.13 191.984 192.005s-86.109 191.995-191.984 191.995M511.989 256.011c-70.587 0-128 57.434-128 128 0 70.587 57.413 127.989 128 127.989 70.597 0 127.989-57.403 127.989-127.989 0-70.566-57.392-128-127.989-128" />
<glyph unicode="&#xe665;" glyph-name="jiahao" d="M884.392 419.312h-336.601v336.601c0 19.421-15.89 35.312-35.312 35.312v0c-19.421 0-35.312-15.89-35.312-35.312v-336.6h-336.601c-19.421 0-35.312-15.89-35.312-35.312v0c0-19.421 15.89-35.312 35.312-35.312h336.6v-336.6c0-19.421 15.89-35.312 35.312-35.312v0c19.421 0 35.312 15.89 35.312 35.312v336.599h336.6c19.421 0 35.312 15.89 35.312 35.312v0c0.002 19.421-15.889 35.312-35.31 35.312z" />
<glyph unicode="&#xe681;" glyph-name="v" d="M512 832c-247.4 0-448-200.6-448-448s200.6-448 448-448 448 200.6 448 448-200.6 448-448 448zM784.7 553.9c-0.6-2.1-1.6-4.3-2.9-6.4l-266.5-424.6h-138.3l-44.4 391.6c-1.6 15.3-5.4 26.7-11.3 34.1-5.9 7.5-15 12.3-27.2 14.5l5.8 15.6h125.8c13.5 0 23.5-3.2 30.1-9.6s10.7-17 12.3-31.7l24.6-272.3 138.3 261.1c1.3 2.6 2.4 5.5 3.4 8.4s1.4 5.2 1.4 6.8c0 6.2-2.4 11-7.2 14.7-4.8 3.6-11.9 5.9-21.2 7l4.8 15.6h143.2c9.3 0 16.7-1.7 22.1-5 5.5-3.4 8.2-7.7 8.2-13.1 0-2.3-0.4-4.5-1-6.7z" />
<glyph unicode="&#xe699;" glyph-name="saomiao" d="M968.704-72.704h-304.469v-55.296h359.765v359.765h-55.296v-304.469zM55.296 840.704h276.821v55.296h-332.117v-332.117h55.296v276.821zM55.296 231.765h-55.296v-359.765h332.117v55.296h-276.821v304.469zM664.235 896v-55.296h304.469v-276.821h55.296v332.117h-359.765zM0 370.347h1024v55.296h-1024v-55.296z" />
<glyph unicode="&#xe6a1;" glyph-name="correct" d="M911.538 702.439c7.893 7.91 16.739 12.175 28.071 9.632 20.482-4.604 28.745-29.077 15.228-45.133-1.363-1.622-2.902-3.090-4.404-4.592-72.414-72.419-522.377-522.383-594.797-594.797-15.013-15.018-30.312-15.062-45.281-0.126-36.040 35.964-201.999 201.728-237.936 237.797-15.779 15.841-9.575 41.29 11.425 47.124 10.968 3.040 20.461-0.078 28.507-8.135 28.618-28.656 220.657-220.45 220.657-220.45s513.132 513.153 578.53 578.679z" />
<glyph unicode="&#xe6a2;" glyph-name="aixin" d="M903.711 545.792c-10.824 65.649-47.468 117.509-108.928 154.143-35.297 21.053-75.018 32.184-114.862 32.184-50.883 0-99.139-18.616-135.885-52.429-11.387-10.476-21.796-21.929-31.831-33.075-31.206 38.047-63.099 61.563-100.055 73.882-64.876 21.612-129.475 13.271-188.867-24.402-70.589-44.774-106.097-108.165-105.539-188.431 0.317-47.263 16.051-92.119 48.108-137.098 34.412-48.333 76.749-97.541 133.233-154.865 38.016-38.589 77.404-76.948 115.482-114.074l37.166-36.26c3.313-3.246 6.687-6.441 10.076-9.626l4.198-3.901c7.9-6.584 24.392-17.644 45.993-17.644 17.884 0 34.842 7.332 50.56 21.908 64.63 60.872 133.504 126.991 199.050 198.042 33.94 36.797 72.801 80.067 104.448 128.092 34.278 52.045 46.956 107.075 37.652 163.553M832.998 404.014c-29.998-45.532-66.099-85.734-100.48-123.028-64.732-70.144-132.972-135.69-196.972-195.973-8.054-7.444-15.964-11.233-23.542-11.233-9.139 0-16.86 5.304-19.727 7.629l-3.302 3.118c-3.226 3.041-6.446 6.083-9.59 9.144l-37.197 36.301c-37.944 36.966-77.174 75.197-114.908 113.505-55.736 56.556-95.575 102.825-129.203 150.052-27.167 38.139-40.479 75.556-40.755 114.417-0.445 66.611 28.058 117.228 87.168 154.737 31.427 19.932 64.174 30.049 97.311 30.049 18.924 0 38.38-3.302 57.846-9.779 30.653-10.214 57.61-30.884 85.156-65.403 1.864-2.202 11.889-13.22 27.474-13.22 6.845 0 17.004 2.191 26.547 12.692l1.556 1.725c10.281 11.402 19.963 22.164 30.459 31.826 29.839 27.459 67.574 41.969 109.082 41.969 32.701 0 65.408-9.201 94.577-26.578 51.692-30.833 81.188-72.248 90.143-126.612 7.731-46.996-2.601-91.254-31.642-135.337M383.524 607.293c-13.585 6.436-29.514 10.194-46.322 10.194-0.109 0-0.219 0-0.328 0h0.017c-61.501 0-111.544-50.043-111.544-111.534 0-22.057 6.431-43.372 18.58-61.67 3.602-5.35 9.636-8.822 16.48-8.822 4.083 0 7.877 1.235 11.029 3.353l-0.071-0.045c5.36 3.595 8.84 9.63 8.84 16.479 0 4.082-1.237 7.875-3.355 11.025l0.045-0.071c-7.49 11.133-11.955 24.844-11.955 39.597 0 0.053 0 0.105 0 0.158v-0.008c0 39.685 32.276 71.951 71.962 71.951 10.516 0 20.608-2.191 30.029-6.533 2.44-1.162 5.302-1.841 8.323-1.841 7.914 0 14.74 4.658 17.886 11.381l0.051 0.121c1.152 2.434 1.825 5.289 1.825 8.3 0 7.919-4.651 14.751-11.371 17.914l-0.121 0.051" />
<glyph unicode="&#xe6ad;" glyph-name="xiaoxi" d="M254 408c0-29.823 24.177-54 54-54s54 24.177 54 54c0 29.823-24.177 54-54 54s-54-24.177-54-54zM461 408c0-29.823 24.177-54 54-54s54 24.177 54 54c0 29.823-24.177 54-54 54s-54-24.177-54-54zM669.5 408c0-29.823 24.177-54 54-54s54 24.177 54 54c0 29.823-24.177 54-54 54s-54-24.177-54-54zM512 777c-237 0-429-165-429-367.5 0-87 34.5-169.5 99-235.5l-69-180 232.5 76.5c52.5-19.5 109.5-28.5 166.5-28.5 237 0 429 165 429 367.5s-192 367.5-429 367.5zM512 91.5c-55.5 0-108 9-157.5 28.5l-9 3-148.5-48 43.5 111-12 12c-61.5 58.5-96 133.5-96 211.5 0 175.5 169.5 318 379.5 318s379.5-142.5 379.5-318-169.5-318-379.5-318z" />
<glyph unicode="&#xe6fe;" glyph-name="shangquanguimo" horiz-adv-x="1025" d="M184.311 53.58c11.3 0 20.5 9.2 20.5 20.5v757.8h245.8v-757.8c0-11.3 9.2-20.5 20.5-20.5s20.5 9.2 20.5 20.5v614.4h327.7v-614.4c0-11.3 9.2-20.5 20.5-20.5s20.5 9.2 20.5 20.5v634.9c0 11.3-9.2 20.5-20.5 20.5h-348.3v122.9c0 11.3-9.2 20.5-20.5 20.5h-286.7c-11.3 0-20.5-9.2-20.5-20.5v-778.2c0-11.4 9.2-20.6 20.5-20.6zM368.611 667.98h-81.9c-11.3 0-20.5-9.2-20.5-20.5s9.2-20.5 20.5-20.5h81.9c11.3 0 20.5 9.2 20.5 20.5s-9.2 20.5-20.5 20.5zM368.611 504.080h-81.9c-11.3 0-20.5-9.2-20.5-20.5s9.2-20.5 20.5-20.5h81.9c11.3 0 20.5 9.2 20.5 20.5s-9.2 20.5-20.5 20.5zM286.711 340.28c-11.3 0-20.5-9.2-20.5-20.5s9.2-20.5 20.5-20.5h81.9c11.3 0 20.5 9.2 20.5 20.5s-9.2 20.5-20.5 20.5h-81.9zM573.411 524.58c0-17 13.8-30.7 30.7-30.7s30.7 13.8 30.7 30.7-13.8 30.7-30.7 30.7-30.7-13.7-30.7-30.7zM675.811 524.58c0-17 13.8-30.7 30.7-30.7s30.7 13.8 30.7 30.7-13.8 30.7-30.7 30.7-30.7-13.7-30.7-30.7zM573.411 401.78c0-17 13.8-30.7 30.7-30.7s30.7 13.8 30.7 30.7-13.8 30.7-30.7 30.7-30.7-13.8-30.7-30.7zM675.811 401.78c0-17 13.8-30.7 30.7-30.7s30.7 13.8 30.7 30.7-13.8 30.7-30.7 30.7-30.7-13.8-30.7-30.7zM573.411 278.88c0-17 13.8-30.7 30.7-30.7s30.7 13.8 30.7 30.7v0c0 17-13.8 30.7-30.7 30.7s-30.7-13.8-30.7-30.7zM675.811 278.88c0-17 13.8-30.7 30.7-30.7s30.7 13.8 30.7 30.7v0c0 17-13.8 30.7-30.7 30.7s-30.7-13.8-30.7-30.7zM978.511 139.48c-8.8 7.1-21.7 5.7-28.8-3.2-7.1-8.8-5.6-21.7 3.2-28.8 20-16 30.1-31.8 30.1-46.9 0-61.2-176.2-124.5-471-124.5s-471 63.3-471 124.5c0 15.1 10.1 30.9 30.1 46.9 8.8 7.1 10.3 20 3.2 28.8s-20 10.3-28.8 3.2c-30.2-24.2-45.5-50.7-45.5-78.8 0-122.1 275.8-165.4 512-165.4s512 43.3 512 165.4c0 28.1-15.3 54.6-45.5 78.8z" />
<glyph unicode="&#xe701;" glyph-name="hot" d="M599.255 486.419c-5.595 5.992-12.347 10.744-20.241 14.209-7.889 3.481-16.587 5.242-26.093 5.242-9.464 0-18.119-1.761-25.897-5.242-7.796-3.465-14.537-8.217-20.243-14.209-5.67-6.017-10.044-13.231-13.112-21.659-3.052-8.427-4.585-17.504-4.585-27.187 0-10.113 1.576-19.435 4.744-27.962 3.161-8.546 7.535-15.87 13.123-21.988 5.579-6.102 12.269-10.904 20.074-14.368 7.778-3.489 16.434-5.217 25.897-5.217 9.497 0 18.135 1.728 25.93 5.217 7.805 3.473 14.547 8.267 20.228 14.368 5.697 6.118 10.129 13.442 13.281 21.988 3.169 8.528 4.753 17.849 4.753 27.962 0 9.691-1.584 18.759-4.753 27.187-3.145 8.427-7.527 15.65-13.106 21.659zM730.369 719.851h-434.839c-152.696 0-276.479-124.128-276.479-276.572v-395.13l171.213 118.549h540.105c152.68 0 276.479 124.138 276.479 276.582 0 152.755-124.104 276.571-276.479 276.571zM395.53 324.722h-54.045v93.578h-87.24v-93.578h-54.063v223.807h54.063v-84.722h87.24v84.722h54.045v-223.807zM665.791 389.064c-6.102-14.655-14.614-27.196-25.444-37.629-10.862-10.433-23.765-18.507-38.723-24.178-14.96-5.696-31.199-8.545-48.703-8.545-17.471 0-33.651 2.849-48.508 8.545-14.841 5.671-27.709 13.745-38.555 24.178-10.864 10.433-19.341 22.974-25.443 37.629-6.12 14.639-9.153 30.82-9.153 48.509 0 17.908 3.034 34.089 9.153 48.525 6.102 14.428 14.579 26.698 25.443 36.82 10.846 10.122 23.714 17.899 38.555 23.395 14.856 5.46 31.037 8.217 48.508 8.217 17.513 0 33.734-2.756 48.703-8.217 14.949-5.487 27.86-13.273 38.723-23.395 10.83-10.122 19.334-22.392 25.444-36.82 6.108-14.436 9.158-30.617 9.158-48.525 0-17.689-3.050-33.87-9.158-48.509zM860.506 502.372h-63.214v-177.65h-54.054v177.65h-63.239v46.157h180.507v-46.157zM860.506 502.372" />
<glyph unicode="&#xe707;" glyph-name="jianli" d="M749.324 517.787h-249.975c-12.543 0-22.279-9.734-22.279-22.277s9.734-22.279 22.279-22.279h249.875c11.839 0 22.277 9.734 22.375 22.279 0.002 12.543-9.732 22.277-22.275 22.277zM269.547 350.001h479.679c11.839 0 22.277 9.734 22.277 22.277 0 12.545-9.736 22.279-22.277 22.279h-479.679c-12.543 0-22.279-9.734-22.279-22.279 0-12.543 9.734-22.277 22.279-22.277zM498.646 599.272h250.577c11.839 0 22.277 9.734 22.277 22.277s-9.736 22.279-22.277 22.279h-250.577c-12.543 0-22.279-9.736-22.279-22.279 0.002-12.541 9.736-22.277 22.279-22.277zM882.89 150.010c0.193 1.087 0.304 2.339 0.304 3.616s-0.111 2.529-0.323 3.746l0.019-0.13v609.115c0 36.927-29.903 66.832-66.834 66.832h-609.831c-36.929 0-66.834-29.905-66.834-66.832v-765.174c0-36.929 29.905-66.834 66.834-66.834h475.464l3.356 3.508c1.646 1.059 3.077 2.219 4.37 3.516l0.001 0.001 187.855 196.989c0.682 0.767 1.309 1.575 1.884 2.416l3.733 3.903v5.328zM173.524 1.183v765.174c0 18.030 14.671 32.699 32.701 32.699h609.831c18.030 0 32.701-14.669 32.701-32.699v-591.068h-131.545c-36.927 0-66.834-29.903-66.834-66.83v-139.976h-444.152c-18.032 0-32.701 14.669-32.701 32.701zM684.51-13.323v121.782c0 18.028 14.671 32.697 32.701 32.697h115.068l-147.769-154.478zM298.045 497.617h84.194c27.798 0 50.077 22.979 50.077 50.075 0 22.981-16.055 43.151-38.334 48.77 9.031 11.14 13.948 25.086 13.948 39.639 0 35.524-29.203 65.429-65.427 65.429-36.227 0-65.429-29.203-65.429-65.429 0-14.65 4.917-27.798 13.248-38.936-22.78-2.81-42.348-23.684-42.348-49.472-0.002-27.796 22.979-50.075 50.073-50.075zM344.106 674.435c20.874 0 38.334-17.36 38.334-38.334 0-20.872-17.36-38.334-38.334-38.334-20.972 0-38.334 17.362-38.334 38.334 0 20.874 17.462 38.334 38.334 38.334zM298.145 571.376h84.196c13.246 0 22.979-10.436 22.979-22.981s-10.438-22.979-22.979-22.979h-84.196c-13.246 0-22.979 10.436-22.979 22.979s9.734 22.981 22.979 22.981zM596.090 265.104h-324.436c-12.543 0-22.279-9.734-22.279-22.279 0-12.543 9.736-22.279 22.279-22.279h324.436c11.839 0 22.277 9.736 22.277 22.279-0.002 12.545-9.734 22.279-22.277 22.279z" />
<glyph unicode="&#xe744;" glyph-name="gongsi" d="M888.745 38.435h-48.531v442.151h-226.467v48.531h253.43c16.177 0 26.964-10.783 26.964-26.964v-463.725zM770.115 259.509h-75.489c-10.783 0-16.177 10.783-16.177 16.177 0 10.783 10.783 16.177 16.177 16.177h75.489c10.783 0 16.177-10.783 16.177-16.177 5.394-10.783-5.394-16.177-16.177-16.177zM770.115 372.748h-75.489c-10.783 0-16.177 10.783-16.177 16.177 0 10.783 10.783 16.177 16.177 16.177h75.489c10.783 0 16.177-10.783 16.177-16.177 5.394-10.783-5.394-16.177-16.177-16.177zM522.081 259.509h-75.489c-10.783 0-16.177 10.783-16.177 16.177 0 10.783 10.783 16.177 16.177 16.177h75.489c10.783 0 16.177-10.783 16.177-16.177 0-10.783-10.783-16.177-16.177-16.177zM392.668 259.509h-75.489c-10.783 0-16.177 10.783-16.177 16.177 0 10.783 10.783 16.177 16.177 16.177h75.489c10.783 0 16.177-10.783 16.177-16.177 5.394-10.783-5.394-16.177-16.177-16.177zM522.081 372.748h-75.489c-10.783 0-16.177 10.783-16.177 16.177 0 10.783 10.783 16.177 16.177 16.177h75.489c10.783 0 16.177-10.783 16.177-16.177 0-10.783-10.783-16.177-16.177-16.177zM392.668 372.748h-75.489c-10.783 0-16.177 10.783-16.177 16.177 0 10.783 10.783 16.177 16.177 16.177h75.489c10.783 0 16.177-10.783 16.177-16.177 5.394-10.783-5.394-16.177-16.177-16.177zM522.081 485.982h-75.489c-10.783 0-16.177 10.783-16.177 16.177 0 10.783 10.783 16.177 16.177 16.177h75.489c10.783 0 16.177-10.783 16.177-16.177 0-10.783-10.783-16.177-16.177-16.177zM392.668 485.982h-75.489c-10.783 0-16.177 10.783-16.177 16.177 0 10.783 10.783 16.177 16.177 16.177h75.489c10.783 0 16.177-10.783 16.177-16.177 5.394-10.783-5.394-16.177-16.177-16.177zM522.081 599.213h-75.489c-10.783 0-16.177 10.783-16.177 16.177 0 10.783 10.783 16.177 16.177 16.177h75.489c10.783 0 16.177-10.783 16.177-16.177 0-10.783-10.783-16.177-16.177-16.177zM392.668 599.213h-75.489c-10.783 0-16.177 10.783-16.177 16.177 0 10.783 10.783 16.177 16.177 16.177h75.489c10.783 0 16.177-10.783 16.177-16.177 5.394-10.783-5.394-16.177-16.177-16.177zM635.315 38.435h-48.531v679.408h-334.308v-679.408h-48.531v700.978c0 16.177 10.783 26.964 26.964 26.964h377.446c16.177 0 26.964-10.783 26.964-26.964v-700.978zM921.097 11.469h-754.898c-16.177 0-26.964 10.783-26.964 26.964s10.783 26.964 26.964 26.964h760.292c16.177 0 26.964-10.783 26.964-26.964-5.394-16.177-16.177-26.964-32.352-26.964z" />
<glyph unicode="&#xe77c;" glyph-name="shangcheng" d="M510.487-63.045c-100.914 0.002-201.83-0.155-302.743 0.064-55.309 0.121-101.51 36.952-112.754 89.656-1.89 8.859-2.474 18.14-2.505 27.229-0.334 97.76-0.362 195.519-0.799 293.278-0.024 5.225-1.885 11.124-4.716 15.539-14.681 22.892-22.681 47.845-23.094 74.875-0.555 36.258-0.259 72.531-0.037 108.795 0.024 3.847 1.238 8.12 3.171 11.458 51.783 89.418 103.776 178.713 155.538 268.142 2.773 4.79 5.836 6.316 11.195 6.312 184.8-0.129 369.6-0.132 554.399 0.015 5.444 0.004 8.388-1.781 11.080-6.403 52.007-89.29 104.205-178.468 156.183-267.775 2.085-3.583 3.357-8.191 3.385-12.331 0.246-36.58 0.208-73.162 0.082-109.743-0.096-27.874-7.090-53.486-24.584-75.88-2.547-3.26-3.301-8.651-3.309-13.058-0.18-97.13-1.499-194.286 0.326-291.381 1.281-68.141-54.845-119.202-119.021-118.914-100.597 0.451-201.198 0.122-301.798 0.123zM121.54 552.877c260.937 0 520.541 0 781.509 0-2.113 3.898-3.605 6.892-5.31 9.759-40.587 68.255-81.314 136.427-121.62 204.847-3.942 6.69-8.219 8.724-15.644 8.714-166.544-0.191-333.089-0.193-499.633 0.013-7.2 0.009-11.18-2.044-14.864-8.425-39.546-68.493-79.458-136.774-119.248-205.127-1.673-2.873-3.126-5.877-5.19-9.783zM720.394 399.748c-24.184-38.859-54.957-68.49-101.934-70.465-46.565-1.959-82.816 19.318-107.601 59.315-24.080-39.895-60.341-59.797-105.966-59.474-47.138 0.335-78.99 28.409-104.516 66.236-1.857-2.952-3.216-5.337-4.785-7.575-25.677-36.619-58.521-60.381-105.489-59.164-13.8 0.357-27.618 0.055-41.667 0.055 0-56.421 0-111.965 0-167.549 242.439 0 483.927 0 726.065 0 0 55.792 0 111.088 0 167.476-16.776 0-33.124 0.651-49.404-0.129-39.534-1.893-68.506 15.264-89.419 47.848-4.882 7.603-9.873 15.138-15.285 23.426zM148.139 104.366c0-20.755-1.016-40.909 0.281-60.912 1.337-20.625 13.584-35.597 31.985-43.474 10.901-4.666 23.709-6.77 35.666-6.795 196.5-0.399 393.002-0.291 589.503-0.252 5.668 0.001 11.372 0.159 16.999 0.785 23.639 2.631 47.784 21.284 50.437 43.416 2.628 21.928 0.575 44.418 0.575 67.232-241.168 0-482.652 0-725.447 0zM314.492 440.045c1.409-18.877 11.839-30.844 26.61-38.795 36.141-19.452 73.708-22.676 111.905-6.48 20.986 8.899 39.71 20.773 45.098 45.139 8.843 0 17.222 0 25.872 0 2.716-16.34 13.034-26.807 25.789-34.976 42.39-27.147 85.467-26.506 128.581-1.827 14.546 8.327 26.369 19.384 29.433 37.040 8.666 0 16.804 0 25.37 0 1.615-14.133 9.020-24.688 19.572-33.342 33.129-27.175 92.636-29.701 128.018-5.417 10.505 7.209 19.827 16.502 20.713 29.205 1.502 21.534 0.413 43.25 0.413 65.339-260.537 0-520.821 0-782.051 0 0-18.542 0.14-36.469-0.039-54.392-0.179-17.966 7.766-31.395 22.261-41.384 14.436-9.948 30.893-13.731 47.93-15.904 38.963-4.969 91.981 17.040 99.407 55.792 8.090 0.001 16.197 0.001 25.117 0.001z" />
<glyph unicode="&#xe900;" glyph-name="eye-view" d="M1022.88 391.168c-0.32 1.344-0.128 2.784-0.64 4.096-0.192 0.544-0.672 0.832-0.864 1.344-0.32 0.768-0.256 1.632-0.672 2.368-92.8 177.632-294.816 304.896-507.936 304.896-213.152 0-415.136-127.072-508-304.672-0.416-0.736-0.352-1.6-0.672-2.368-0.224-0.512-0.672-0.8-0.864-1.344-0.512-1.312-0.32-2.752-0.64-4.096-0.576-2.4-1.12-4.704-1.12-7.168s0.576-4.736 1.12-7.168c0.32-1.344 0.128-2.784 0.64-4.096 0.192-0.544 0.672-0.832 0.864-1.344 0.32-0.768 0.256-1.632 0.672-2.368 92.832-177.632 294.848-304.896 508-304.896 213.12 0 415.136 127.072 507.936 304.672 0.448 0.736 0.384 1.6 0.672 2.368 0.192 0.512 0.672 0.8 0.864 1.344 0.512 1.312 0.32 2.752 0.64 4.096 0.544 2.432 1.12 4.736 1.12 7.168s-0.576 4.768-1.12 7.168zM512.736 128.384c-179.68 0-355.584 102.112-443.232 255.84 88.128 153.92 263.776 255.68 443.232 255.68 179.616 0 355.552-102.144 443.2-255.84-88.128-153.952-263.744-255.68-443.2-255.68zM512.736 512.032c8.832 0 15.936-7.136 15.936-16 0-8.8-7.136-15.968-15.936-15.968v-0.032c-52.928 0-95.968-43.040-95.968-95.904 0-8.832-7.168-16-15.968-16-8.832 0-16 7.168-16 16 0 70.56 57.184 127.744 127.744 127.872 0.064 0 0.128 0.032 0.192 0.032zM512 608c-123.744 0-224-100.288-224-224s100.288-224 224-224c123.68 0 224 100.32 224 224 0 123.744-100.32 224-224 224zM512 192c-105.888 0-192 86.112-192 192s86.112 192 192 192c105.888 0 192-86.112 192-192s-86.112-192-192-192z" />
<glyph unicode="&#xe901;" glyph-name="close" d="M579.257 390.665l415.776-405.769c14.651-14.302 14.941-37.777 0.652-52.427l-17.284-17.695c-14.29-14.65-37.752-14.94-52.427-0.639l-417.611 407.593-412.346-400.847c-14.724-14.326-38.332-14.037-52.694 0.64l-17.354 17.705c-14.387 14.689-14.097 38.185 0.627 52.511l410.731 399.3-395.789 386.293c-14.652 14.289-14.941 37.775-0.652 52.426l17.283 17.683c14.289 14.663 37.752 14.941 52.427 0.64l397.649-388.102 407.594 396.224c14.724 14.325 38.331 14.036 52.691-0.64l17.355-17.718c14.388-14.676 14.097-38.186-0.626-52.501l-406.001-394.678z" />
<glyph unicode="&#xe902;" glyph-name="company" d="M893.094 28.877h-22.96v432.881c0 39.62-32.57 71.853-72.604 71.853h-152.806v164.7c0 49.233-38.558 89.288-85.953 89.288h-302.016c-47.394 0-85.953-40.054-85.953-89.288v-669.435h-25.461c-11.868 0-21.489-9.621-21.489-21.489s9.621-21.489 21.489-21.489h747.75c11.868 0 21.489 9.621 21.489 21.489s-9.62 21.489-21.488 21.489zM797.53 490.633c16.335 0 29.625-12.953 29.625-28.875v-432.881h-182.429l-0.001 461.756h152.805zM213.783 698.311c0 25.535 19.278 46.309 42.974 46.309h302.016c23.696 0 42.974-20.774 42.974-46.309l0.002-669.435h-153.641v48.84c0 12.978-10.618 23.595-23.595 23.595h-33.494c-12.978 0-23.595-10.618-23.595-23.595v-48.84h-153.639v669.435zM287.524 611.625h76.131c11.868 0 21.489 9.621 21.489 21.489s-9.621 21.489-21.489 21.489h-76.131c-11.868 0-21.489-9.621-21.489-21.489s9.621-21.489 21.489-21.489zM287.524 491.656h76.131c11.868 0 21.489 9.621 21.489 21.489s-9.621 21.489-21.489 21.489h-76.131c-11.868 0-21.489-9.621-21.489-21.489s9.621-21.489 21.489-21.489zM363.758 414.664h-76.131c-11.868 0-21.489-9.621-21.489-21.489s9.621-21.489 21.489-21.489h76.131c11.868 0 21.489 9.621 21.489 21.489s-9.621 21.489-21.489 21.489zM285.72 251.715h76.131c11.868 0 21.489 9.621 21.489 21.489s-9.621 21.489-21.489 21.489h-76.131c-11.868 0-21.489-9.621-21.489-21.489s9.621-21.489 21.489-21.489zM383.442 153.234c0 11.868-9.621 21.489-21.489 21.489h-76.131c-11.868 0-21.489-9.621-21.489-21.489s9.621-21.489 21.489-21.489h76.131c11.868 0 21.489 9.621 21.489 21.489zM456.284 611.625h76.131c11.868 0 21.489 9.621 21.489 21.489s-9.621 21.489-21.489 21.489h-76.131c-11.868 0-21.489-9.621-21.489-21.489s9.62-21.489 21.489-21.489zM456.284 491.656h76.131c11.868 0 21.489 9.621 21.489 21.489s-9.621 21.489-21.489 21.489h-76.131c-11.868 0-21.489-9.621-21.489-21.489s9.62-21.489 21.489-21.489zM532.516 414.664h-76.131c-11.868 0-21.489-9.621-21.489-21.489s9.621-21.489 21.489-21.489h76.131c11.868 0 21.489 9.621 21.489 21.489s-9.622 21.489-21.489 21.489zM454.479 251.715h76.131c11.868 0 21.489 9.621 21.489 21.489s-9.621 21.489-21.489 21.489h-76.131c-11.868 0-21.489-9.621-21.489-21.489s9.621-21.489 21.489-21.489zM530.711 174.724h-76.131c-11.868 0-21.489-9.621-21.489-21.489s9.621-21.489 21.489-21.489h76.131c11.868 0 21.489 9.621 21.489 21.489s-9.621 21.489-21.489 21.489zM698.829 371.686h76.13c11.868 0 21.489 9.621 21.489 21.489s-9.621 21.489-21.489 21.489h-76.13c-11.868 0-21.489-9.621-21.489-21.489s9.621-21.489 21.489-21.489zM696.923 251.715h76.131c11.868 0 21.489 9.621 21.489 21.489s-9.621 21.489-21.489 21.489h-76.131c-11.868 0-21.489-9.621-21.489-21.489s9.621-21.489 21.489-21.489zM773.155 174.724h-76.13c-11.868 0-21.489-9.621-21.489-21.489s9.621-21.489 21.489-21.489h76.13c11.868 0 21.489 9.621 21.489 21.489s-9.622 21.489-21.489 21.489z" />
<glyph unicode="&#xe903;" glyph-name="down" d="M478.312 251.841c24.38-26.902 64.507-26.539 88.507 0.889l270.569 309.222c7.759 8.867 6.86 22.345-2.007 30.103s-22.345 6.86-30.103-2.007l-270.569-309.222c-7.202-8.231-17.541-8.324-24.782-0.334l-280.786 309.833c-7.912 8.73-21.403 9.394-30.133 1.482s-9.394-21.403-1.482-30.133l280.786-309.833z" />
<glyph unicode="&#xe904;" glyph-name="earth" d="M990.561 559.428c-11.531 27.93-45.226 60.665-136.192 64.829-77.145 106.632-201.201 175.205-341.273 175.205-0.171 0-0.342 0-0.513 0-231.615 0-420.016-186.351-420.016-415.429 0-18.962 2.562-38.308 5.253-57.526-73.349-71.811-75.655-122.419-63.355-152.335s49.326-65.597 155.346-65.597l8.904 0.192c77.287-86.188 188.99-140.164 313.301-140.164 0.186 0 0.372 0 0.558 0 231.612 0 420.013 186.351 420.013 415.429 0 8.904-0.769 18.065-1.345 27.097 69.505 69.825 71.363 119.088 59.32 148.299zM935.149 537.072c3.908-9.353 0.512-26.072-15.759-49.39-7.492 28.162-16.593 52.44-27.743 75.543 26.846-8.152 39.915-17.313 43.502-26.153zM512.545 740.334c121.778 0 234.396-60.216 301.339-161.111 29.019-43.753 47.533-93.848 54.835-145.48-70.722-62.651-182.315-127.223-310.179-178.792-120.305-48.493-240.033-78.666-333.048-85.2-32.753 42.206-56.413 93.115-67.099 148.64-3.993 21.254-6.089 43.16-6.121 65.55 0.064 196.563 161.688 356.393 360.274 356.393zM89.812 196.464c-4.228 10.25 0.705 30.621 23.254 59.256 9.865-30.108 23.19-59.063 39.717-86.161-39.397 4.42-58.423 15.951-62.971 26.905zM512.545 27.666c-0.219 0-0.478-0.001-0.737-0.001-90.186 0-172.659 33.026-235.983 87.644 91.176 11.97 198.733 41.886 305.265 84.806 113.578 45.867 216.075 102.112 290.769 159.125-12.812-185.005-169.054-331.575-359.313-331.575z" />
<glyph unicode="&#xe905;" glyph-name="left" d="M683.543-49.727l-444.565 444.571 444.565 444.57 106.695-106.697-337.868-337.873 337.868-337.883-106.695-106.688z" />
<glyph unicode="&#xe906;" glyph-name="education" d="M502.691 353.676c-12.079 0-30.208 0-42.287 6.051l-392.751 132.911c-30.208 12.079-48.337 42.287-48.337 72.495s18.129 60.416 48.337 72.495l386.7 132.934c30.208 12.079 60.416 12.079 90.624 0l386.7-132.934c36.259-12.079 54.388-42.287 54.388-72.495s-18.129-60.416-48.337-72.495l-392.727-132.934c-12.102-6.028-30.231-6.028-42.31-6.028v0zM502.691 716.195c-6.051 0-18.129 0-24.157-6.051l-386.7-132.911c-12.079 0-12.079-6.051-12.079-12.079 0-6.051 0-12.079 12.079-12.079l386.7-132.934c18.129-6.051 30.208-6.051 48.337 0l386.7 132.934c12.079 0 12.079 6.051 12.079 12.079 0 6.051 0 12.079-12.079 12.079l-386.723 132.911c-6.028 6.051-18.106 6.051-24.157 6.051v0zM702.092 21.341h-398.801c-72.495 0-132.934 60.416-132.934 132.934v320.233c0 18.129 12.079 30.208 30.208 30.208s30.208-12.079 30.208-30.208v-320.233c0-42.287 30.208-72.495 72.495-72.495h404.829c36.259 0 72.495 36.259 72.495 72.495v320.233c0 18.129 12.079 30.208 30.208 30.208s30.208-12.079 30.208-30.208v-320.233c-6.004-72.495-66.42-132.934-138.915-132.934v0zM925.649 51.549c-18.129 0-30.208 12.079-30.208 30.208v362.543c0 18.129 12.079 30.208 30.208 30.208s30.208-12.079 30.208-30.208v-362.519c0-18.129-12.102-30.231-30.208-30.231v0zM925.649-20.945v0zM877.312-20.945v0z" />
<glyph unicode="&#xe907;" glyph-name="love" horiz-adv-x="1039" d="M250.932 797.705c56.773 1.155 105.213-6.916 143.866-23.977 0.999 0 1.999 0 2.997 0 0-0.333 0-0.666 0-0.999 0.666 0 1.332 0 1.999 0 0-0.333 0-0.666 0-0.999 0.999 0 1.999 0 2.997 0 0-0.333 0-0.666 0-0.999 1.999-0.666 3.996-1.332 5.995-1.999 0-0.333 0-0.666 0-0.999 0.666 0 1.332 0 1.999 0 0-0.333 0-0.666 0-0.999 0.666 0 1.332 0 1.999 0 0-0.333 0-0.666 0-0.999 0.666 0 1.332 0 1.999 0 0-0.333 0-0.666 0-0.999 0.666 0 1.332 0 1.999 0 0-0.333 0-0.666 0-0.999 0.666 0 1.332 0 1.999 0 0-0.333 0-0.666 0-0.999 0.666 0 1.332 0 1.999 0 0-0.333 0-0.666 0-0.999 0.666 0 1.332 0 1.999 0l1.999-1.999c0.666 0 1.332 0 1.999 0 0.333-0.666 0.666-1.332 0.999-1.999 1.332-0.333 2.664-0.666 3.996-0.999 0.333-0.666 0.666-1.332 0.999-1.999 1.332-0.333 2.664-0.666 3.996-0.999 0-0.333 0-0.666 0-0.999 0.999-0.333 1.999-0.666 2.997-0.999 0.333-0.666 0.666-1.332 0.999-1.999 0.666 0 1.332 0 1.999 0 0.333-0.666 0.666-1.332 0.999-1.999 0.666 0 1.332 0 1.999 0 0.666-0.999 1.332-1.999 1.999-2.997 0.666 0 1.332 0 1.999 0 0.333-0.666 0.666-1.332 0.999-1.999 0.999-0.333 1.999-0.666 2.997-0.999 0.666-0.999 1.332-1.999 1.999-2.997 0.666 0 1.332 0 1.999 0 1.332-1.665 2.664-3.33 3.996-4.996 0.666 0 1.332 0 1.999 0 1.665-1.999 3.33-3.996 4.996-5.995 0.333 0 0.666 0 0.999 0 0.333-0.666 0.666-1.332 0.999-1.999 0.666 0 1.332 0 1.999 0 1.999-2.331 3.996-4.663 5.995-6.993 0.666-0.333 1.332-0.666 1.999-0.999 0-0.666 0-1.332 0-1.999 2.664-2.331 5.328-4.663 7.992-6.993 0-0.666 0-1.332 0-1.999 1.332-0.999 2.665-1.999 3.996-2.997 0-0.666 0-1.332 0-1.999 0.999-0.666 1.999-1.332 2.997-1.999 0.333-0.999 0.666-1.999 0.999-2.997 0.666-0.333 1.332-0.666 1.999-0.999 0-0.666 0-1.332 0-1.999 0.666-0.333 1.332-0.666 1.999-0.999 3.662-6.66 7.327-13.321 10.989-19.981 1.138 1.138 0.398 0.004 0.999 1.999 2.865 2.489 2.948 6.725 4.996 9.991 0.666 0.333 1.332 0.666 1.999 0.999 0 0.666 0 1.332 0 1.999 0.333 0 0.666 0 0.999 0 0 0.666 0 1.332 0 1.999 0.666 0.333 1.332 0.666 1.999 0.999 0 0.666 0 1.332 0 1.999 0.666 0.333 1.332 0.666 1.999 0.999 0 0.666 0 1.332 0 1.999 0.999 0.666 1.999 1.332 2.997 1.999 0 0.666 0 1.332 0 1.999 0.999 0.666 1.999 1.332 2.997 1.999 0 0.666 0 1.332 0 1.999 0.999 0.666 1.999 1.332 2.997 1.999 0 0.666 0 1.332 0 1.999 1.999 1.665 3.996 3.33 5.995 4.996 0 0.666 0 1.332 0 1.999 1.999 1.665 3.996 3.33 5.995 4.996 3.33 3.662 6.661 7.327 9.991 10.989 0.666 0 1.332 0 1.999 0 1.665 1.999 3.33 3.996 4.996 5.995 0.666 0 1.332 0 1.999 0 0.999 1.332 1.999 2.665 2.997 3.996 0.666 0 1.332 0 1.999 0 0.666 0.999 1.332 1.999 1.999 2.997 0.666 0 1.332 0 1.999 0 0.666 0.999 1.332 1.999 1.999 2.997 0.666 0 1.332 0 1.999 0 0.333 0.666 0.666 1.332 0.999 1.999 0.666 0 1.332 0 1.999 0 0.333 0.666 0.666 1.332 0.999 1.999 0.666 0 1.332 0 1.999 0 0.333 0.666 0.666 1.332 0.999 1.999 0.666 0 1.332 0 1.999 0 0.333 0.666 0.666 1.332 0.999 1.999 1.332 0.333 2.664 0.666 3.996 0.999 0.333 0.666 0.666 1.332 0.999 1.999 1.999 0.666 3.996 1.332 5.995 1.999 0.333 0.666 0.666 1.332 0.999 1.999 0.666 0 1.332 0 1.999 0l1.999 1.999c0.666 0 1.332 0 1.999 0 0 0.333 0 0.666 0 0.999 0.666 0 1.332 0 1.999 0 0 0.333 0 0.666 0 0.999 0.666 0 1.332 0 1.999 0 0 0.333 0 0.666 0 0.999 0.666 0 1.332 0 1.999 0 0 0.333 0 0.666 0 0.999 1.999 0.666 3.996 1.332 5.995 1.999 0 0.333 0 0.666 0 0.999 0.999 0 1.999 0 2.997 0 0 0.333 0 0.666 0 0.999 0.666 0 1.332 0 1.999 0 0 0.333 0 0.666 0 0.999 0.999 0 1.999 0 2.997 0 0 0.333 0 0.666 0 0.999 1.332 0.333 2.665 0.666 3.996 0.999 0 0.333 0 0.666 0 0.999 2.997 0.666 5.995 1.332 8.992 1.999 0 0.333 0 0.666 0 0.999 0.666 0 1.332 0 1.999 0 0 0.333 0 0.666 0 0.999 4.329 0.999 8.659 1.999 12.988 2.997 0 0.333 0 0.666 0 0.999 1.332 0 2.665 0 3.996 0 0 0.333 0 0.666 0 0.999 0.999 0 1.999 0 2.997 0 0 0.333 0 0.666 0 0.999 1.332 0 2.665 0 3.996 0 0 0.333 0 0.666 0 0.999 1.332 0 2.664 0 3.996 0 0 0.333 0 0.666 0 0.999 4.995 0.666 9.992 1.332 14.986 1.999 0 0.333 0 0.666 0 0.999 3.662 0.333 7.327 0.666 10.989 0.999 9.852 2.863 23.921 3.949 35.966 3.996 11.49 0.045 28.858 3.128 39.962 0 5.328 0 10.657 0 15.985 0 0-0.333 0-0.666 0-0.999 2.997 0 5.995 0 8.992 0 0-0.333 0-0.666 0-0.999 6.66-0.666 13.321-1.332 19.981-1.999 0-0.333 0-0.666 0-0.999 1.665 0 3.33 0 4.996 0 0-0.333 0-0.666 0-0.999 1.332 0 2.665 0 3.996 0 0-0.333 0-0.666 0-0.999 1.665 0 3.33 0 4.996 0 0-0.333 0-0.666 0-0.999 1.332 0 2.665 0 3.996 0 0-0.333 0-0.666 0-0.999 2.331-0.333 4.663-0.666 6.993-0.999 0-0.333 0-0.666 0-0.999 0.999 0 1.999 0 2.997 0 0-0.333 0-0.666 0-0.999 1.332 0 2.665 0 3.996 0 0-0.333 0-0.666 0-0.999 2.997-0.666 5.995-1.332 8.992-1.999 0-0.333 0-0.666 0-0.999 0.666 0 1.332 0 1.999 0 0-0.333 0-0.666 0-0.999 1.999-0.333 3.996-0.666 5.995-0.999 0-0.333 0-0.666 0-0.999 0.666 0 1.332 0 1.999 0 0-0.333 0-0.666 0-0.999 0.999 0 1.999 0 2.997 0 0-0.333 0-0.666 0-0.999 0.666 0 1.332 0 1.999 0 0-0.333 0-0.666 0-0.999 1.665-0.333 3.33-0.666 4.996-0.999 0-0.333 0-0.666 0-0.999 1.999-0.666 3.996-1.332 5.995-1.999 0-0.333 0-0.666 0-0.999 0.666 0 1.332 0 1.999 0 0-0.333 0-0.666 0-0.999 0.666 0 1.332 0 1.999 0 0-0.333 0-0.666 0-0.999 0.666 0 1.332 0 1.999 0l1.999-1.999c0.666 0 1.332 0 1.999 0 0.333-0.666 0.666-1.332 0.999-1.999 1.999-0.666 3.996-1.332 5.995-1.999 0-0.333 0-0.666 0-0.999 0.999-0.333 1.999-0.666 2.997-0.999 0.333-0.666 0.666-1.332 0.999-1.999 1.332-0.333 2.665-0.666 3.996-0.999 0.333-0.666 0.666-1.332 0.999-1.999 0.666 0 1.332 0 1.999 0 0.666-0.999 1.332-1.999 1.999-2.997 0.666 0 1.332 0 1.999 0 0.333-0.666 0.666-1.332 0.999-1.999 0.666 0 1.332 0 1.999 0 0.333-0.666 0.666-1.332 0.999-1.999 0.333 0 0.666 0 0.999 0 0.333-0.666 0.666-1.332 0.999-1.999 0.666 0 1.332 0 1.999 0 1.332-1.665 2.664-3.33 3.996-4.996 0.666 0 1.332 0 1.999 0 3.33-3.662 6.661-7.327 9.991-10.989 3.996-3.662 7.993-7.327 11.989-10.989 0-0.666 0-1.332 0-1.999 1.999-1.665 3.996-3.33 5.995-4.996 0-0.666 0-1.332 0-1.999 1.332-0.999 2.664-1.999 3.996-2.997 0-0.666 0-1.332 0-1.999 0.999-0.666 1.999-1.332 2.997-1.999 0-0.666 0-1.332 0-1.999 0.999-0.666 1.999-1.332 2.997-1.999 0-0.666 0-1.332 0-1.999 0.666-0.333 1.332-0.666 1.999-0.999 0-0.666 0-1.332 0-1.999 0.666-0.333 1.332-0.666 1.999-0.999 0-0.666 0-1.332 0-1.999 0.999-0.666 1.999-1.332 2.997-1.999 0-0.666 0-1.332 0-1.999 0.666-0.333 1.332-0.666 1.999-0.999 0.333-1.332 0.666-2.665 0.999-3.996 0.666-0.333 1.332-0.666 1.999-0.999 0.333-0.999 0.666-1.999 0.999-2.997 0.333 0 0.666 0 0.999 0 0.666-1.999 1.332-3.996 1.999-5.995 0.666-0.333 1.332-0.666 1.999-0.999 0-0.666 0-1.332 0-1.999 0.333 0 0.666 0 0.999 0 0-0.666 0-1.332 0-1.999l1.999-1.999c0-0.666 0-1.332 0-1.999 0.666-0.333 1.332-0.666 1.999-0.999 0.333-1.332 0.666-2.665 0.999-3.996 0.333 0 0.666 0 0.999 0 0.666-1.999 1.332-3.996 1.999-5.995 0.333 0 0.666 0 0.999 0 0-0.999 0-1.999 0-2.997 0.333 0 0.666 0 0.999 0 0-0.666 0-1.332 0-1.999 0.333 0 0.666 0 0.999 0 0.333-1.332 0.666-2.664 0.999-3.996 0.333 0 0.666 0 0.999 0 0-0.999 0-1.999 0-2.997 0.333 0 0.666 0 0.999 0 0.333-1.332 0.666-2.665 0.999-3.996 0.333 0 0.666 0 0.999 0 0-0.999 0-1.999 0-2.997 0.333 0 0.666 0 0.999 0 0-0.666 0-1.332 0-1.999 0.333 0 0.666 0 0.999 0 0.666-2.997 1.332-5.995 1.999-8.992 0.333 0 0.666 0 0.999 0 0-0.666 0-1.332 0-1.999 0.333 0 0.666 0 0.999 0 0-1.332 0-2.665 0-3.996 0.333 0 0.666 0 0.999 0 0-0.999 0-1.999 0-2.997 0.333 0 0.666 0 0.999 0 0-0.999 0-1.999 0-2.997 0.333 0 0.666 0 0.999 0 0-0.999 0-1.999 0-2.997 0.333 0 0.666 0 0.999 0 0.666-3.996 1.332-7.993 1.999-11.989 6.466-19.343 9.984-45.634 9.991-70.934 0.003-12.115 0.722-25.527-1.999-34.967-0.999-7.658-1.999-15.32-2.997-22.978-0.333 0-0.666 0-0.999 0-0.333-2.664-0.666-5.328-0.999-7.992-0.333 0-0.666 0-0.999 0 0-1.332 0-2.664 0-3.996-0.333 0-0.666 0-0.999 0 0-0.999 0-1.999 0-2.997-0.333 0-0.666 0-0.999 0 0-0.999 0-1.999 0-2.997-0.333 0-0.666 0-0.999 0-0.666-3.33-1.332-6.661-1.999-9.991-0.333 0-0.666 0-0.999 0 0-0.666 0-1.332 0-1.999-0.333 0-0.666 0-0.999 0-0.666-2.997-1.332-5.995-1.999-8.992-0.333 0-0.666 0-0.999 0 0-0.666 0-1.332 0-1.999-0.333 0-0.666 0-0.999 0 0-0.999 0-1.999 0-2.997-0.333 0-0.666 0-0.999 0-0.333-1.332-0.666-2.664-0.999-3.996-0.333 0-0.666 0-0.999 0 0-0.999 0-1.999 0-2.997-0.333 0-0.666 0-0.999 0 0-0.666 0-1.332 0-1.999-0.333 0-0.666 0-0.999 0 0-0.999 0-1.999 0-2.997-0.333 0-0.666 0-0.999 0-0.333-1.332-0.666-2.664-0.999-3.996-0.333 0-0.666 0-0.999 0 0-0.666 0-1.332 0-1.999-0.333 0-0.666 0-0.999 0 0-0.666 0-1.332 0-1.999-0.333 0-0.666 0-0.999 0 0-0.999 0-1.999 0-2.997-0.333 0-0.666 0-0.999 0-0.666-1.999-1.332-3.996-1.999-5.995-0.333 0-0.666 0-0.999 0 0-0.666 0-1.332 0-1.999-0.333 0-0.666 0-0.999 0 0-0.666 0-1.332 0-1.999-0.333 0-0.666 0-0.999 0 0-0.666 0-1.332 0-1.999-0.333 0-0.666 0-0.999 0 0-0.666 0-1.332 0-1.999-0.333 0-0.666 0-0.999 0 0-0.666 0-1.332 0-1.999-0.333 0-0.666 0-0.999 0 0-0.666 0-1.332 0-1.999-0.333 0-0.666 0-0.999 0 0-0.666 0-1.332 0-1.999l-1.999-1.999c0-0.666 0-1.332 0-1.999-0.666-0.333-1.332-0.666-1.999-0.999 0-0.666 0-1.332 0-1.999l-1.999-1.999c0-0.666 0-1.332 0-1.999-0.333 0-0.666 0-0.999 0 0-0.666 0-1.332 0-1.999-0.333 0-0.666 0-0.999 0 0-0.666 0-1.332 0-1.999-0.333 0-0.666 0-0.999 0-0.333-1.332-0.666-2.664-0.999-3.996-0.666-0.333-1.332-0.666-1.999-0.999 0-0.666 0-1.332 0-1.999-0.333 0-0.666 0-0.999 0 0-0.666 0-1.332 0-1.999l-1.999-1.999c0-0.666 0-1.332 0-1.999-0.666-0.333-1.332-0.666-1.999-0.999-0.666-1.999-1.332-3.996-1.999-5.995-0.666-0.333-1.332-0.666-1.999-0.999-0.666-1.999-1.332-3.996-1.999-5.995-0.666-0.333-1.332-0.666-1.999-0.999 0-0.666 0-1.332 0-1.999-0.333 0-0.666 0-0.999 0-0.333-0.999-0.666-1.999-0.999-2.997-0.666-0.333-1.332-0.666-1.999-0.999 0-0.666 0-1.332 0-1.999-0.666-0.333-1.332-0.666-1.999-0.999-0.333-0.999-0.666-1.999-0.999-2.997-1.332-0.999-2.665-1.999-3.996-2.997 0-0.666 0-1.332 0-1.999-1.665-1.332-3.33-2.665-4.996-3.996 0-0.666 0-1.332 0-1.999-4.329-3.996-8.659-7.993-12.988-11.989-0.333-0.999-0.666-1.999-0.999-2.997-0.999-0.666-1.999-1.332-2.997-1.999 0-0.333 0-0.666 0-0.999-0.666 0-1.332 0-1.999 0-4.995-5.328-9.991-10.657-14.986-15.985-0.666 0-1.332 0-1.999 0-2.331-2.664-4.663-5.328-6.993-7.992-0.666 0-1.332 0-1.999 0-1.999-2.331-3.996-4.663-5.995-6.993-0.666 0-1.332 0-1.999 0-1.332-1.665-2.665-3.33-3.996-4.996-0.666 0-1.332 0-1.999 0-1.332-1.665-2.664-3.33-3.996-4.996-0.666 0-1.332 0-1.999 0-1.332-1.665-2.665-3.33-3.996-4.996-0.666 0-1.332 0-1.999 0-0.999-1.332-1.999-2.664-2.997-3.996-0.666 0-1.332 0-1.999 0-0.333-0.666-0.666-1.332-0.999-1.999-0.333 0-0.666 0-0.999 0-0.333-0.666-0.666-1.332-0.999-1.999-0.666 0-1.332 0-1.999 0-0.999-1.332-1.999-2.665-2.997-3.996-0.666 0-1.332 0-1.999 0-0.999-1.332-1.999-2.665-2.997-3.996-0.666 0-1.332 0-1.999 0-0.666-0.999-1.332-1.999-1.999-2.997-0.666 0-1.332 0-1.999 0-0.999-1.332-1.999-2.664-2.997-3.996-0.666 0-1.332 0-1.999 0-0.666-0.999-1.332-1.999-1.999-2.997-0.999-0.333-1.999-0.666-2.997-0.999-0.333-0.666-0.666-1.332-0.999-1.999-0.666 0-1.332 0-1.999 0-0.666-0.999-1.332-1.999-1.999-2.997-0.666 0-1.332 0-1.999 0-0.666-0.999-1.332-1.999-1.999-2.997-0.666 0-1.332 0-1.999 0-0.666-0.999-1.332-1.999-1.999-2.997-0.666 0-1.332 0-1.999 0-0.666-0.999-1.332-1.999-1.999-2.997-0.666 0-1.332 0-1.999 0-0.666-0.999-1.332-1.999-1.999-2.997-0.999-0.333-1.999-0.666-2.997-0.999-0.333-0.666-0.666-1.332-0.999-1.999-0.666 0-1.332 0-1.999 0-0.333-0.666-0.666-1.332-0.999-1.999-0.666 0-1.332 0-1.999 0-0.333-0.666-0.666-1.332-0.999-1.999-0.999-0.333-1.999-0.666-2.997-0.999-0.666-0.999-1.332-1.999-1.999-2.997-0.666 0-1.332 0-1.999 0-0.333-0.666-0.666-1.332-0.999-1.999-0.666 0-1.332 0-1.999 0-0.333-0.666-0.666-1.332-0.999-1.999-0.999-0.333-1.999-0.666-2.997-0.999-0.666-0.999-1.332-1.999-1.999-2.997-0.666 0-1.332 0-1.999 0 0-0.333 0-0.666 0-0.999-0.999-0.333-1.999-0.666-2.997-0.999-0.333-0.666-0.666-1.332-0.999-1.999-0.666 0-1.332 0-1.999 0-0.666-0.999-1.332-1.999-1.999-2.997-0.666 0-1.332 0-1.999 0-0.333-0.666-0.666-1.332-0.999-1.999-0.666 0-1.332 0-1.999 0-0.666-0.999-1.332-1.999-1.999-2.997-0.666 0-1.332 0-1.999 0 0-0.333 0-0.666 0-0.999-0.999-0.333-1.999-0.666-2.997-0.999-0.333-0.666-0.666-1.332-0.999-1.999-0.666 0-1.332 0-1.999 0-0.666-0.999-1.332-1.999-1.999-2.997-0.666 0-1.332 0-1.999 0 0-0.333 0-0.666 0-0.999-0.999-0.333-1.999-0.666-2.997-0.999-0.333-0.666-0.666-1.332-0.999-1.999-0.666 0-1.332 0-1.999 0-0.666-0.999-1.332-1.999-1.999-2.997-0.666 0-1.332 0-1.999 0-0.333-0.666-0.666-1.332-0.999-1.999-0.999-0.333-1.999-0.666-2.997-0.999 0-0.333 0-0.666 0-0.999-0.666 0-1.332 0-1.999 0 0-0.333 0-0.666 0-0.999-0.999-0.333-1.999-0.666-2.997-0.999-0.333-0.666-0.666-1.332-0.999-1.999-0.666 0-1.332 0-1.999 0-0.333-0.666-0.666-1.332-0.999-1.999-0.666 0-1.332 0-1.999 0-0.666-0.999-1.332-1.999-1.999-2.997-0.666 0-1.332 0-1.999 0-0.333-0.666-0.666-1.332-0.999-1.999-0.999-0.333-1.999-0.666-2.997-0.999 0-0.333 0-0.666 0-0.999-0.666 0-1.332 0-1.999 0-0.333-0.666-0.666-1.332-0.999-1.999-0.666 0-1.332 0-1.999 0-0.333-0.666-0.666-1.332-0.999-1.999-0.666 0-1.332 0-1.999 0-0.333-0.666-0.666-1.332-0.999-1.999-0.666 0-1.332 0-1.999 0-0.333-0.666-0.666-1.332-0.999-1.999-0.666 0-1.332 0-1.999 0-0.333-0.666-0.666-1.332-0.999-1.999-0.666 0-1.332 0-1.999 0-0.333-0.666-0.666-1.332-0.999-1.999-0.666 0-1.332 0-1.999 0-0.333-0.666-0.666-1.332-0.999-1.999-0.666 0-1.332 0-1.999 0-0.333-0.666-0.666-1.332-0.999-1.999-0.666 0-1.332 0-1.999 0-0.333-0.666-0.666-1.332-0.999-1.999-0.666 0-1.332 0-1.999 0-0.333-0.666-0.666-1.332-0.999-1.999-0.666 0-1.332 0-1.999 0-0.333-0.666-0.666-1.332-0.999-1.999-0.666 0-1.332 0-1.999 0-0.333-0.666-0.666-1.332-0.999-1.999-0.666 0-1.332 0-1.999 0-0.333-0.666-0.666-1.332-0.999-1.999-0.666 0-1.332 0-1.999 0-0.333-0.666-0.666-1.332-0.999-1.999-0.666 0-1.332 0-1.999 0-0.333-0.666-0.666-1.332-0.999-1.999-0.666 0-1.332 0-1.999 0-0.333-0.666-0.666-1.332-0.999-1.999-1.332-0.333-2.665-0.666-3.996-0.999-0.333-0.666-0.666-1.332-0.999-1.999-0.666 0-1.332 0-1.999 0-0.333-0.666-0.666-1.332-0.999-1.999-0.666 0-1.332 0-1.999 0-0.333-0.666-0.666-1.332-0.999-1.999-0.666 0-1.332 0-1.999 0-0.333-0.666-0.666-1.332-0.999-1.999-0.999-0.333-1.999-0.666-2.997-0.999 0-0.333 0-0.666 0-0.999-1.332-0.333-2.665-0.666-3.996-0.999-0.333-0.666-0.666-1.332-0.999-1.999-0.666 0-1.332 0-1.999 0-0.333-0.666-0.666-1.332-0.999-1.999-0.666 0-1.332 0-1.999 0-0.333-0.666-0.666-1.332-0.999-1.999-0.666 0-1.332 0-1.999 0-0.333-0.666-0.666-1.332-0.999-1.999-1.332-0.333-2.664-0.666-3.996-0.999-0.333-0.666-0.666-1.332-0.999-1.999-0.666 0-1.332 0-1.999 0-0.333-0.666-0.666-1.332-0.999-1.999-0.666 0-1.332 0-1.999 0-0.333-0.666-0.666-1.332-0.999-1.999-0.666 0-1.332 0-1.999 0-0.333-0.666-0.666-1.332-0.999-1.999-1.332-0.333-2.665-0.666-3.996-0.999 0-0.333 0-0.666 0-0.999-0.999-0.333-1.999-0.666-2.997-0.999-0.333-0.666-0.666-1.332-0.999-1.999-1.332-0.333-2.665-0.666-3.996-0.999-0.333-0.666-0.666-1.332-0.999-1.999-0.666 0-1.332 0-1.999 0-0.333-0.666-0.666-1.332-0.999-1.999-0.666 0-1.332 0-1.999 0-0.333-0.666-0.666-1.332-0.999-1.999-1.332-0.333-2.664-0.666-3.996-0.999 0-0.333 0-0.666 0-0.999-0.999-0.333-1.999-0.666-2.997-0.999-0.333-0.666-0.666-1.332-0.999-1.999-1.332-0.333-2.665-0.666-3.996-0.999 0-0.333 0-0.666 0-0.999-0.999-0.333-1.999-0.666-2.997-0.999-0.333-0.666-0.666-1.332-0.999-1.999-1.332-0.333-2.665-0.666-3.996-0.999-0.333-0.666-0.666-1.332-0.999-1.999-0.666 0-1.332 0-1.999 0-0.333-0.666-0.666-1.332-0.999-1.999-1.332-0.333-2.665-0.666-3.996-0.999-0.333-0.666-0.666-1.332-0.999-1.999-1.332-0.333-2.665-0.666-3.996-0.999 0-0.333 0-0.666 0-0.999-0.999-0.333-1.999-0.666-2.997-0.999-0.333-0.666-0.666-1.332-0.999-1.999-1.332-0.333-2.665-0.666-3.996-0.999-0.333-0.666-0.666-1.332-0.999-1.999-0.666 0-1.332 0-1.999 0 0-0.333 0-0.666 0-0.999-0.666 0-1.332 0-1.999 0-0.333-0.666-0.666-1.332-0.999-1.999-1.332-0.333-2.665-0.666-3.996-0.999-0.333-0.666-0.666-1.332-0.999-1.999-1.332-0.333-2.664-0.666-3.996-0.999-0.333-0.666-0.666-1.332-0.999-1.999-0.666 0-1.332 0-1.999 0-2.664-2.997-5.328-5.995-7.992-8.992-0.666 0-1.332 0-1.999 0-0.666-0.999-1.332-1.999-1.999-2.997-0.666 0-1.332 0-1.999 0-0.333-0.666-0.666-1.332-0.999-1.999-1.332-0.333-2.665-0.666-3.996-0.999 0-0.333 0-0.666 0-0.999-1.999-0.666-3.996-1.332-5.995-1.999 0-0.333 0-0.666 0-0.999-0.999 0-1.999 0-2.997 0 0-0.333 0-0.666 0-0.999-2.664-0.333-5.328-0.666-7.992-0.999 0-0.333 0-0.666 0-0.999-4.773-1.411-14.735-0.043-17.984 0.999-1.332 0-2.664 0-3.996 0 0 0.333 0 0.666 0 0.999-0.999 0-1.999 0-2.997 0 0 0.333 0 0.666 0 0.999-0.999 0-1.999 0-2.997 0 0 0.333 0 0.666 0 0.999-0.999 0-1.999 0-2.997 0 0 0.333 0 0.666 0 0.999-0.666 0-1.332 0-1.999 0 0 0.333 0 0.666 0 0.999-0.666 0-1.332 0-1.999 0-0.333 0.666-0.666 1.332-0.999 1.999-1.332 0.333-2.665 0.666-3.996 0.999-0.333 0.666-0.666 1.332-0.999 1.999-0.666 0-1.332 0-1.999 0-0.333 0.666-0.666 1.332-0.999 1.999-0.666 0-1.332 0-1.999 0-1.332 1.665-2.664 3.33-3.996 4.996-0.666 0-1.332 0-1.999 0 0 0.333 0 0.666 0 0.999-0.999 0.666-1.999 1.332-2.997 1.999-0.333 0.666-0.666 1.332-0.999 1.999-0.666 0-1.332 0-1.999 0 0 0.333 0 0.666 0 0.999-0.666 0-1.332 0-1.999 0-0.333 0.666-0.666 1.332-0.999 1.999-1.332 0.333-2.665 0.666-3.996 0.999-0.333 0.666-0.666 1.332-0.999 1.999-1.332 0.333-2.664 0.666-3.996 0.999-0.333 0.666-0.666 1.332-0.999 1.999-0.666 0-1.332 0-1.999 0-0.333 0.666-0.666 1.332-0.999 1.999-1.332 0.333-2.665 0.666-3.996 0.999-0.333 0.666-0.666 1.332-0.999 1.999-1.332 0.333-2.664 0.666-3.996 0.999 0 0.333 0 0.666 0 0.999-0.999 0.333-1.999 0.666-2.997 0.999-0.333 0.666-0.666 1.332-0.999 1.999-1.332 0.333-2.664 0.666-3.996 0.999 0 0.333 0 0.666 0 0.999-0.999 0.333-1.999 0.666-2.997 0.999-0.333 0.666-0.666 1.332-0.999 1.999-0.666 0-1.332 0-1.999 0 0 0.333 0 0.666 0 0.999-0.666 0-1.332 0-1.999 0-0.333 0.666-0.666 1.332-0.999 1.999-1.332 0.333-2.664 0.666-3.996 0.999 0 0.333 0 0.666 0 0.999-0.999 0.333-1.999 0.666-2.997 0.999-0.333 0.666-0.666 1.332-0.999 1.999-1.332 0.333-2.664 0.666-3.996 0.999-0.333 0.666-0.666 1.332-0.999 1.999-0.666 0-1.332 0-1.999 0-0.333 0.666-0.666 1.332-0.999 1.999-0.666 0-1.332 0-1.999 0-0.333 0.666-0.666 1.332-0.999 1.999-0.666 0-1.332 0-1.999 0 0 0.333 0 0.666 0 0.999-0.666 0-1.332 0-1.999 0-0.333 0.666-0.666 1.332-0.999 1.999-0.666 0-1.332 0-1.999 0-0.333 0.666-0.666 1.332-0.999 1.999-1.332 0.333-2.664 0.666-3.996 0.999-0.333 0.666-0.666 1.332-0.999 1.999-0.666 0-1.332 0-1.999 0-0.333 0.666-0.666 1.332-0.999 1.999-0.666 0-1.332 0-1.999 0-0.333 0.666-0.666 1.332-0.999 1.999-0.666 0-1.332 0-1.999 0-0.333 0.666-0.666 1.332-0.999 1.999-1.332 0.333-2.665 0.666-3.996 0.999-0.333 0.666-0.666 1.332-0.999 1.999-0.666 0-1.332 0-1.999 0-0.333 0.666-0.666 1.332-0.999 1.999-0.666 0-1.332 0-1.999 0-0.333 0.666-0.666 1.332-0.999 1.999-0.666 0-1.332 0-1.999 0-0.333 0.666-0.666 1.332-0.999 1.999-1.332 0.333-2.664 0.666-3.996 0.999-0.333 0.666-0.666 1.332-0.999 1.999-0.666 0-1.332 0-1.999 0 0 0.333 0 0.666 0 0.999-0.999 0.333-1.999 0.666-2.997 0.999-0.333 0.666-0.666 1.332-0.999 1.999-0.666 0-1.332 0-1.999 0-0.333 0.666-0.666 1.332-0.999 1.999-0.999 0.333-1.999 0.666-2.997 0.999 0 0.333 0 0.666 0 0.999-1.332 0.333-2.664 0.666-3.996 0.999-0.333 0.666-0.666 1.332-0.999 1.999-0.666 0-1.332 0-1.999 0-0.333 0.666-0.666 1.332-0.999 1.999-0.666 0-1.332 0-1.999 0-0.333 0.666-0.666 1.332-0.999 1.999-0.666 0-1.332 0-1.999 0-0.333 0.666-0.666 1.332-0.999 1.999-0.666 0-1.332 0-1.999 0-0.333 0.666-0.666 1.332-0.999 1.999-0.666 0-1.332 0-1.999 0-0.333 0.666-0.666 1.332-0.999 1.999-0.666 0-1.332 0-1.999 0 0 0.333 0 0.666 0 0.999-0.999 0.333-1.999 0.666-2.997 0.999-0.333 0.666-0.666 1.332-0.999 1.999-0.666 0-1.332 0-1.999 0 0 0.333 0 0.666 0 0.999-0.999 0.333-1.999 0.666-2.997 0.999-0.333 0.666-0.666 1.332-0.999 1.999-0.666 0-1.332 0-1.999 0-0.333 0.666-0.666 1.332-0.999 1.999-0.666 0-1.332 0-1.999 0-0.333 0.666-0.666 1.332-0.999 1.999-0.666 0-1.332 0-1.999 0-0.333 0.666-0.666 1.332-0.999 1.999-0.666 0-1.332 0-1.999 0-0.333 0.666-0.666 1.332-0.999 1.999-0.666 0-1.332 0-1.999 0-0.333 0.666-0.666 1.332-0.999 1.999-0.666 0-1.332 0-1.999 0-0.333 0.666-0.666 1.332-0.999 1.999-0.666 0-1.332 0-1.999 0-0.333 0.666-0.666 1.332-0.999 1.999-0.666 0-1.332 0-1.999 0 0 0.333 0 0.666 0 0.999-0.999 0.333-1.999 0.666-2.997 0.999-0.333 0.666-0.666 1.332-0.999 1.999-0.666 0-1.332 0-1.999 0-0.333 0.666-0.666 1.332-0.999 1.999-0.666 0-1.332 0-1.999 0-0.666 0.999-1.332 1.999-1.999 2.997-0.666 0-1.332 0-1.999 0-0.333 0.666-0.666 1.332-0.999 1.999-0.999 0.333-1.999 0.666-2.997 0.999 0 0.333 0 0.666 0 0.999-0.666 0-1.332 0-1.999 0-0.333 0.666-0.666 1.332-0.999 1.999-0.666 0-1.332 0-1.999 0-0.333 0.666-0.666 1.332-0.999 1.999-0.666 0-1.332 0-1.999 0-0.666 0.999-1.332 1.999-1.999 2.997-0.666 0-1.332 0-1.999 0 0 0.333 0 0.666 0 0.999-0.999 0.333-1.999 0.666-2.997 0.999-0.333 0.666-0.666 1.332-0.999 1.999-0.666 0-1.332 0-1.999 0-0.666 0.999-1.332 1.999-1.999 2.997-0.666 0-1.332 0-1.999 0 0 0.333 0 0.666 0 0.999-0.999 0.333-1.999 0.666-2.997 0.999-0.333 0.666-0.666 1.332-0.999 1.999-0.666 0-1.332 0-1.999 0-0.666 0.999-1.332 1.999-1.999 2.997-0.666 0-1.332 0-1.999 0-0.333 0.666-0.666 1.332-0.999 1.999-0.666 0-1.332 0-1.999 0-0.666 0.999-1.332 1.999-1.999 2.997-0.666 0-1.332 0-1.999 0-0.333 0.666-0.666 1.332-0.999 1.999-0.666 0-1.332 0-1.999 0-0.666 0.999-1.332 1.999-1.999 2.997-0.666 0-1.332 0-1.999 0-0.333 0.666-0.666 1.332-0.999 1.999-0.666 0-1.332 0-1.999 0-0.666 0.999-1.332 1.999-1.999 2.997-0.666 0-1.332 0-1.999 0-0.333 0.666-0.666 1.332-0.999 1.999-0.666 0-1.332 0-1.999 0-0.666 0.999-1.332 1.999-1.999 2.997-0.666 0-1.332 0-1.999 0-0.666 0.999-1.332 1.999-1.999 2.997-0.666 0-1.332 0-1.999 0-0.666 0.999-1.332 1.999-1.999 2.997-0.666 0-1.332 0-1.999 0-0.333 0.666-0.666 1.332-0.999 1.999-0.666 0-1.332 0-1.999 0-0.333 0.666-0.666 1.332-0.999 1.999-0.999 0.333-1.999 0.666-2.997 0.999-0.666 0.999-1.332 1.999-1.999 2.997-0.666 0-1.332 0-1.999 0-0.666 0.999-1.332 1.999-1.999 2.997-0.666 0-1.332 0-1.999 0-0.666 0.999-1.332 1.999-1.999 2.997-0.666 0-1.332 0-1.999 0-0.666 0.999-1.332 1.999-1.999 2.997-0.666 0-1.332 0-1.999 0-0.999 1.332-1.999 2.664-2.997 3.996-0.666 0-1.332 0-1.999 0-0.666 0.999-1.332 1.999-1.999 2.997-0.666 0-1.332 0-1.999 0-0.666 0.999-1.332 1.999-1.999 2.997-0.666 0-1.332 0-1.999 0-0.999 1.332-1.999 2.665-2.997 3.996-0.666 0-1.332 0-1.999 0-0.333 0.666-0.666 1.332-0.999 1.999-0.333 0-0.666 0-0.999 0-0.333 0.666-0.666 1.332-0.999 1.999-0.666 0-1.332 0-1.999 0-0.999 1.332-1.999 2.665-2.997 3.996-0.666 0-1.332 0-1.999 0-0.999 1.332-1.999 2.665-2.997 3.996-0.666 0-1.332 0-1.999 0-0.999 1.332-1.999 2.665-2.997 3.996-0.666 0-1.332 0-1.999 0-1.332 1.665-2.664 3.33-3.996 4.996-0.666 0-1.332 0-1.999 0-1.332 1.665-2.665 3.33-3.996 4.996-0.666 0-1.332 0-1.999 0-1.665 1.999-3.33 3.996-4.996 5.995-0.666 0-1.332 0-1.999 0-1.999 2.331-3.996 4.663-5.995 6.993-0.666 0-1.332 0-1.999 0-2.997 3.33-5.995 6.661-8.992 9.991-0.666 0-1.332 0-1.999 0-5.661 5.994-11.323 11.989-16.984 17.984-2.664 2.331-5.328 4.663-7.992 6.993 0 0.666 0 1.332 0 1.999-2.331 1.999-4.663 3.996-6.993 5.995-0.333 0.999-0.666 1.999-0.999 2.997-0.999 0.666-1.999 1.332-2.997 1.999 0 0.666 0 1.332 0 1.999-0.999 0.666-1.999 1.332-2.997 1.999 0 0.666 0 1.332 0 1.999-0.999 0.666-1.999 1.332-2.997 1.999 0 0.666 0 1.332 0 1.999-0.666 0.333-1.332 0.666-1.999 0.999 0 0.666 0 1.332 0 1.999-0.666 0.333-1.332 0.666-1.999 0.999-0.666 1.999-1.332 3.996-1.999 5.995-0.666 0.333-1.332 0.666-1.999 0.999-0.666 1.999-1.332 3.996-1.999 5.995-0.666 0.333-1.332 0.666-1.999 0.999 0 0.666 0 1.332 0 1.999-0.333 0-0.666 0-0.999 0 0 0.666 0 1.332 0 1.999l-1.999 1.999c0 0.666 0 1.332 0 1.999-0.666 0.333-1.332 0.666-1.999 0.999 0 0.666 0 1.332 0 1.999l-1.999 1.999c0 0.666 0 1.332 0 1.999-0.333 0-0.666 0-0.999 0 0 0.666 0 1.332 0 1.999-0.333 0-0.666 0-0.999 0-0.333 1.332-0.666 2.665-0.999 3.996-0.666 0.333-1.332 0.666-1.999 0.999-0.333 1.332-0.666 2.664-0.999 3.996-0.333 0-0.666 0-0.999 0 0 0.666 0 1.332 0 1.999-0.333 0-0.666 0-0.999 0 0 0.666 0 1.332 0 1.999-0.333 0-0.666 0-0.999 0 0 0.666 0 1.332 0 1.999-0.333 0-0.666 0-0.999 0 0 0.666 0 1.332 0 1.999-0.333 0-0.666 0-0.999 0-0.333 1.332-0.666 2.664-0.999 3.996-0.333 0-0.666 0-0.999 0-0.333 1.332-0.666 2.664-0.999 3.996-0.333 0-0.666 0-0.999 0 0 0.666 0 1.332 0 1.999-0.333 0-0.666 0-0.999 0-0.666 1.999-1.332 3.996-1.999 5.995-0.333 0-0.666 0-0.999 0 0 0.999 0 1.999 0 2.997-0.333 0-0.666 0-0.999 0 0 0.666 0 1.332 0 1.999-0.333 0-0.666 0-0.999 0 0 0.666 0 1.332 0 1.999-0.333 0-0.666 0-0.999 0-0.333 1.332-0.666 2.664-0.999 3.996-0.333 0-0.666 0-0.999 0 0 0.999 0 1.999 0 2.997-0.333 0-0.666 0-0.999 0 0 0.666 0 1.332 0 1.999-0.333 0-0.666 0-0.999 0 0 0.999 0 1.999 0 2.997-0.333 0-0.666 0-0.999 0-0.333 1.332-0.666 2.664-0.999 3.996-0.333 0-0.666 0-0.999 0-0.333 1.999-0.666 3.996-0.999 5.995-0.333 0-0.666 0-0.999 0 0 0.666 0 1.332 0 1.999-0.333 0-0.666 0-0.999 0-1.999 6.992-3.996 13.988-5.995 20.981-0.333 0-0.666 0-0.999 0 0 1.332 0 2.664 0 3.996-0.333 0-0.666 0-0.999 0 0 1.332 0 2.664 0 3.996-0.333 0-0.666 0-0.999 0 0 1.332 0 2.664 0 3.996-0.333 0-0.666 0-0.999 0 0 1.332 0 2.664 0 3.996-0.333 0-0.666 0-0.999 0 0 1.665 0 3.33 0 4.996-0.333 0-0.666 0-0.999 0 0 1.665 0 3.33 0 4.996-0.333 0-0.666 0-0.999 0-0.333 4.662-0.666 9.325-0.999 13.987-0.333 0-0.666 0-0.999 0 0 3.996 0 7.993 0 11.989-0.333 0-0.666 0-0.999 0-1.394 5.003-0.042 26.281 0.999 29.972 0 3.996 0 7.993 0 11.989 0.333 0 0.666 0 0.999 0 0 2.997 0 5.995 0 8.992 0.333 0 0.666 0 0.999 0 0 2.331 0 4.663 0 6.993 0.333 0 0.666 0 0.999 0 0 2.331 0 4.663 0 6.993 0.333 0 0.666 0 0.999 0 0 1.665 0 3.33 0 4.996 0.333 0 0.666 0 0.999 0 0 1.999 0 3.996 0 5.995 0.333 0 0.666 0 0.999 0 0 1.332 0 2.665 0 3.996 0.333 0 0.666 0 0.999 0 0.333 2.997 0.666 5.995 0.999 8.992 0.333 0 0.666 0 0.999 0 0.333 2.997 0.666 5.995 0.999 8.992 0.333 0 0.666 0 0.999 0 0.333 2.331 0.666 4.663 0.999 6.993 0.333 0 0.666 0 0.999 0 0 0.999 0 1.999 0 2.997 0.333 0 0.666 0 0.999 0 0 0.999 0 1.999 0 2.997 0.333 0 0.666 0 0.999 0 0 0.999 0 1.999 0 2.997 0.333 0 0.666 0 0.999 0 0 0.999 0 1.999 0 2.997 0.333 0 0.666 0 0.999 0 0.333 1.999 0.666 3.996 0.999 5.995 0.333 0 0.666 0 0.999 0 0 0.666 0 1.332 0 1.999 0.333 0 0.666 0 0.999 0 0 0.999 0 1.999 0 2.997 0.333 0 0.666 0 0.999 0 0.333 1.665 0.666 3.33 0.999 4.996 0.333 0 0.666 0 0.999 0 0 0.666 0 1.332 0 1.999 0.333 0 0.666 0 0.999 0 0 0.999 0 1.999 0 2.997 0.333 0 0.666 0 0.999 0 0.666 1.999 1.332 3.996 1.999 5.995 0.333 0 0.666 0 0.999 0 0 0.666 0 1.332 0 1.999 0.333 0 0.666 0 0.999 0 0 0.999 0 1.999 0 2.997 0.333 0 0.666 0 0.999 0 0.333 1.332 0.666 2.664 0.999 3.996 0.333 0 0.666 0 0.999 0 0.333 1.332 0.666 2.664 0.999 3.996 0.666 0.333 1.332 0.666 1.999 0.999 0 0.666 0 1.332 0 1.999 0.333 0 0.666 0 0.999 0 0 0.666 0 1.332 0 1.999 0.333 0 0.666 0 0.999 0 0 0.666 0 1.332 0 1.999l1.999 1.999c0 0.666 0 1.332 0 1.999 0.666 0.333 1.332 0.666 1.999 0.999 0.333 1.332 0.666 2.665 0.999 3.996 0.333 0 0.666 0 0.999 0 0.333 0.999 0.666 1.999 0.999 2.997 0.666 0.333 1.332 0.666 1.999 0.999 0.333 1.332 0.666 2.665 0.999 3.996 0.666 0.333 1.332 0.666 1.999 0.999 0 0.666 0 1.332 0 1.999 0.333 0 0.666 0 0.999 0 0.333 0.999 0.666 1.999 0.999 2.997 0.666 0.333 1.332 0.666 1.999 0.999 0 0.666 0 1.332 0 1.999 0.999 0.666 1.999 1.332 2.997 1.999 0 0.666 0 1.332 0 1.999 0.666 0.333 1.332 0.666 1.999 0.999 0 0.666 0 1.332 0 1.999 1.332 0.999 2.665 1.999 3.996 2.997 0 0.666 0 1.332 0 1.999 0.999 0.666 1.999 1.332 2.997 1.999 0 0.666 0 1.332 0 1.999 1.665 1.332 3.33 2.665 4.996 3.996 0 0.666 0 1.332 0 1.999 2.664 2.331 5.328 4.663 7.992 6.993 0 0.666 0 1.332 0 1.999 1.332 0.999 2.665 1.999 3.996 2.997 2.331 2.664 4.663 5.328 6.993 7.992 0.999 0.333 1.999 0.666 2.997 0.999 2.664 2.997 5.328 5.995 7.992 8.992 0.666 0 1.332 0 1.999 0 0.666 0.999 1.332 1.999 1.999 2.997 0.666 0 1.332 0 1.999 0 0.666 0.999 1.332 1.999 1.999 2.997 0.666 0 1.332 0 1.999 0 0.666 0.999 1.332 1.999 1.999 2.997 0.666 0 1.332 0 1.999 0 0.333 0.666 0.666 1.332 0.999 1.999 0.666 0 1.332 0 1.999 0 0.333 0.666 0.666 1.332 0.999 1.999 0.999 0.333 1.999 0.666 2.997 0.999 0 0.333 0 0.666 0 0.999 1.332 0.333 2.665 0.666 3.996 0.999 0.333 0.666 0.666 1.332 0.999 1.999 1.999 0.666 3.996 1.332 5.995 1.999 0.333 0.666 0.666 1.332 0.999 1.999 1.332 0.333 2.665 0.666 3.996 0.999 0 0.333 0 0.666 0 0.999 0.666 0 1.332 0 1.999 0 0 0.333 0 0.666 0 0.999 1.999 0.666 3.996 1.332 5.995 1.999 0 0.333 0 0.666 0 0.999 0.999 0 1.999 0 2.997 0 0 0.333 0 0.666 0 0.999 0.666 0 1.332 0 1.999 0 0 0.333 0 0.666 0 0.999 1.332 0.333 2.665 0.666 3.996 0.999 0 0.333 0 0.666 0 0.999 10.656 3.662 21.314 7.327 31.97 10.989 1.332 0 2.664 0 3.996 0 0 0.333 0 0.666 0 0.999 1.332 0 2.664 0 3.996 0 0 0.333 0 0.666 0 0.999 1.332 0 2.664 0 3.996 0 0 0.333 0 0.666 0 0.999 1.665 0 3.33 0 4.996 0 0 0.333 0 0.666 0 0.999 1.665 0 3.33 0 4.996 0 0 0.333 0 0.666 0 0.999 1.665 0 3.33 0 4.996 0 0 0.333 0 0.666 0 0.999 1.999 0 3.996 0 5.995 0 0 0.333 0 0.666 0 0.999 2.331 0 4.663 0 6.993 0 0 0.333 0 0.666 0 0.999 2.997 0 5.995 0 8.992 0 0 0.333 0 0.666 0 0.999 3.955 1.119 9.429-1.277 11.995 0.997z" />
<glyph unicode="&#xe908;" glyph-name="me" d="M259.667 469.023c6.471-11.521 14.228-16.713 21.139-18.809 1.916-5.197 3.719-10.207 5.467-15.062 12.587-34.997 22.513-62.831 51.472-88.823 53.928-68.050 167.618-68.869 172.529-68.869 1.228 0.102 30.802 0.307 66.106 8.698 49.835 11.768 86.162 33.155 108.163 63.445 18.309 25.298 31.935 59.623 44.148 95.6 7.355 3.658 14.118 8.707 19.706 12.87 45.742 34.281 48.095 89.642 49.323 119.318 0.205 4.298 0.409 7.879 0.614 10.949 0.921 11.973-1.433 26.811-2.251 31.722-1.535 13.508-15.657 112.768-118.090 180.716-106.731 70.71-259.51 35.816-265.957 34.281-4.361-1.020-8.398-3.038-11.709-5.836-14.707-7.509-44.772-24.335-74.965-50.344-56.793-49.016-86.776-107.242-86.776-168.436 0-46.049 3.582-84.73 10.335-112.052 2.968-12.075 6.651-22.001 10.745-29.369zM649.854 758.21c36.123-23.945 63.138-55.259 80.33-93.121 12.587-27.834 15.043-49.323 15.145-50.654 0-0.921 0.102-1.535 0.307-2.456 0.921-5.219 2.149-14.736 1.74-19.545-0.307-3.889-0.512-8.186-0.716-12.689-0.614-13.508-1.228-29.574-5.628-44.718-1.126 9.312-3.889 18.624-9.21 27.322-11.256 18.42-26.606 29.778-46.97 34.792-10.335 2.558-21.182 3.172-32.439 3.172-6.038 0-12.28-0.205-18.522-0.512-13.917-0.409-28.346-0.819-44.309 0.512-12.791 1.126-43.286 10.233-71.017 30.085-20.159 14.531-44.207 38.783-44.207 72.245 0 34.281-5.014 63.957-14.94 88.414 46.663 5.321 129.755 7.368 190.437-32.848zM488.581 588.853c34.178-24.559 73.064-37.555 96.498-39.5 18.829-1.637 35.509-1.023 50.244-0.614 35.611 1.126 44.821 0 52.803-13.098 5.321-8.493 0.307-29.062-2.661-41.342-1.637-6.447-2.968-11.973-3.582-17.294-0.483-4.064-0.431-7.677 0.002-10.888-11.155-33.194-23.728-65.872-38.683-86.531-29.676-40.932-106.015-50.551-133.030-50.858-1.74 0-26.094 0.409-54.747 7.163-25.276 6.038-59.454 18.42-78.488 43.491l-1.637 2.149-2.047 1.74c-20.364 17.703-26.913 35.918-38.886 69.175-4.757 13.214-10.294 28.577-17.689 46.278-1.153 4.899-2.669 9.423-4.108 13.688-4.707 14.122-7.879 23.536 2.865 42.877 11.052 20.057 34.178 35.202 60.887 52.7 18.381 11.992 39.024 25.505 58.4 42.604 10.756-22.925 28.854-43.778 53.857-61.74zM289.752 610.547c0 46.253 22.922 89.539 68.050 128.834 17.806 15.452 35.816 27.322 49.426 35.304 1.33-2.865 2.558-5.321 3.582-7.265 6.549-12.075 19.136-52.291-7.982-76.748-17.192-15.452-36.123-27.834-54.542-39.909-21.489-14.122-42.16-27.629-58.533-44.923 0 1.535 0 3.172 0 4.707zM877.641 107.387c-13.712 62.012-96.702 162.194-174.269 190.744l-0.819 0.307-0.819 0.205c-11.359 3.275-19.647-1.637-27.015-6.038-16.885-10.131-68.562-40.83-163.115-40.83-82.888 0-123.001 25.276-142.342 37.453-11.154 7.061-23.843 15.043-38.886 8.084-49.221-22.717-90.563-50.756-122.797-83.399-34.178-34.588-49.835-66.003-56.998-86.265-9.21-26.299-9.721-49.937-1.433-66.617l2.251-4.4 3.684-3.275c49.528-44.002 119.113-77.567 201.182-97.009 53.417-12.587 110.21-19.033 167.311-19.033 22.922 0 45.844 1.023 68.663 3.275 126.378 11.563 226.662 53.621 275.474 115.327 8.085 8.8 15.76 24.662 9.927 51.472zM828.625 88.763l-0.512-0.614c-39.193-50.347-129.141-86.572-240.579-96.805-73.064-6.651-151.040-1.433-219.602 14.838-70.915 16.782-130.779 44.718-173.655 80.841-0.512 8.8 3.479 30.802 23.741 59.863 18.829 27.118 55.361 65.799 123.922 99.261 0.102-0.102 0.205-0.102 0.307-0.205 21.489-13.61 71.836-45.332 169.562-45.332 100.898 0 160.454 31.211 184.4 45.128 29.983-14.224 63.752-42.979 92.2-78.897 14.019-17.703 25.583-36.123 32.746-51.779 6.549-14.633 7.675-23.127 7.47-26.299zM688.431 207.671c-6.754 5.117-16.373 3.684-21.489-3.070s-3.684-16.373 3.070-21.489c57.203-42.877 86.879-115.634 87.186-116.35 2.354-5.935 8.084-9.619 14.224-9.619 1.944 0 3.889 0.409 5.731 1.023 7.879 3.172 11.768 12.075 8.596 19.954-1.33 3.275-33.154 81.455-97.316 129.551z" />
<glyph unicode="&#xe909;" glyph-name="message" d="M853.248 741.76h-682.496c-37.696 0-68.224-30.56-68.224-68.256v-443.776c0-37.696 30.56-68.256 68.224-68.256h478.976l135.232-135.232v135.232h68.288c37.696 0 68.256 30.56 68.256 68.256v443.776c0 37.696-30.56 68.256-68.256 68.256zM887.36 229.728c0-18.816-15.328-34.112-34.112-34.112h-102.4v-86.976l-86.976 86.976h-493.12c-18.816 0-34.112 15.296-34.112 34.112v443.776c0 18.816 15.328 34.112 34.112 34.112h682.496c18.816 0 34.112-15.296 34.112-34.112v-443.776zM512 485.632c-18.848 0-34.112-15.296-34.112-34.112s15.264-34.112 34.112-34.112 34.112 15.264 34.112 34.112c0 18.816-15.264 34.112-34.112 34.112zM648.48 485.632c-18.848 0-34.112-15.296-34.112-34.112s15.264-34.112 34.112-34.112 34.112 15.264 34.112 34.112c0 18.816-15.264 34.112-34.112 34.112zM378.72 485.632c-18.848 0-34.112-15.296-34.112-34.112s15.264-34.112 34.112-34.112 34.112 15.264 34.112 34.112c0 18.816-15.264 34.112-34.112 34.112z" />
<glyph unicode="&#xe90a;" glyph-name="position" d="M512-127.36c-8.832 0-17.28 3.648-23.488 9.664l-295.872 299.008c-71.168 79.936-109.632 180.992-109.632 285.696 0 236.544 192.448 428.992 428.992 428.992s428.992-192.448 428.992-428.992c0-104.704-38.528-205.76-108.416-284.416l-297.088-300.224c-6.208-6.144-14.656-9.728-23.488-9.728zM512 830.016c-200.128 0-363.008-162.816-363.008-363.008 0-88.512 32.64-174.016 91.776-240.64l271.232-273.856 272.448 275.2c57.92 65.344 90.496 150.784 90.496 239.296 0 200.128-162.752 363.008-362.944 363.008zM512 334.976c-90.944 0-164.992 73.984-164.992 164.992s74.048 165.056 164.992 165.056c90.944 0 164.992-73.984 164.992-165.056 0-90.944-74.048-164.992-164.992-164.992zM512 598.976c-54.656 0-99.008-44.416-99.008-99.008s44.416-98.944 99.008-98.944 99.008 44.416 99.008 98.944c0 54.656-44.352 99.008-99.008 99.008z" />
<glyph unicode="&#xe90b;" glyph-name="right" d="M328.499-64l448 448-448 448-80.998-80.998 367.995-367.002-367.995-368.005 80.998-79.995z" />
<glyph unicode="&#xe90c;" glyph-name="seniority" d="M109.952 560c0 12.544 10.304 22.848 22.848 22.848h757.888c12.544 0 22.784-10.304 22.784-22.848v-539.52c0-12.544-10.24-22.784-22.784-22.784h-757.888c-12.544 0-22.848 10.24-22.848 22.784v539.52zM64 560v-539.52c0-37.824 30.848-68.8 68.8-68.8h757.888c37.888 0 68.736 30.848 68.736 68.8v539.52c0 37.824-30.848 68.864-68.736 68.864h-757.888c-37.888 0-68.8-30.912-68.8-68.864v0zM344.704 582.784v116.416c0 12.608 10.368 22.912 22.784 22.912h288.512c12.544 0 22.72-10.24 22.72-22.912v-116.416h46.016v116.416c0 38.080-30.72 68.8-68.736 68.8h-288.512c-37.888 0-68.8-30.848-68.8-68.8v-116.416h46.016zM175.68 452.16h672.192v-45.888h-672.192v45.888zM175.68 326.848h672.192v-46.016h-672.192v46.016zM175.68 201.536h672.192v-46.080h-672.192v46.080z" />
<glyph unicode="&#xe90d;" glyph-name="top" horiz-adv-x="1800" d="M1799.758 13.25l-899.879 882.75-899.879-882.75 143.981-141.25 755.898 741.5 755.898-741.5 143.981 141.25z" />
<glyph unicode="&#xe90e;" glyph-name="circle-with-cross" d="M512 826.88c-237.517 0-430.080-192.563-430.080-430.080s192.563-430.080 430.080-430.080 430.080 192.563 430.080 430.080c0 237.517-192.563 430.080-430.080 430.080zM757.197 240.077l-88.525-88.525-156.672 156.723-156.723-156.672-88.525 88.525 156.774 156.672-156.723 156.723 88.525 88.474 156.672-156.672 156.723 156.723 88.525-88.525-156.774-156.723 156.723-156.723z" />
<glyph unicode="&#xe90f;" glyph-name="lock" d="M480 194.731v0 0c-18.643 6.589-32 24.369-32 45.269 0 26.51 21.49 48 48 48s48-21.49 48-48c0-20.9-13.357-38.679-32-45.269v-83.019c0-8.42-7.163-15.712-16-15.712-8.578 0-16 7.035-16 15.712v83.019zM448 175.994v-63.941c0-26.539 21.306-48.054 48-48.054 26.51 0 48 21.478 48 48.054v63.941c19.431 14.595 32 37.833 32 64.006 0 44.183-35.817 80-80 80s-80-35.817-80-80c0-26.173 12.569-49.411 32-64.006v0 0zM256 448v112.025c0 132.561 107.452 239.976 240 239.976 132.279 0 240-107.441 240-239.976v-112.025c53.093-0.152 96-43.21 96-96.303v-319.393c0-53.531-43.107-96.303-96.281-96.303h-479.438c-53.222 0-96.281 43.116-96.281 96.303v319.393c0 53.437 42.955 96.152 96 96.303v0 0zM288 448h32v111.71c0 97.525 78.798 176.29 176 176.29 97.004 0 176-78.928 176-176.29v-111.71h32v112.21c0 114.759-93.359 207.79-208 207.79-114.875 0-208-93.061-208-207.79v-112.21zM352 448h288v111.973c0 79.544-64.633 144.027-144 144.027-79.529 0-144-64.296-144-144.027v-111.973zM255.918 416c-35.301 0-63.918-28.706-63.918-64.187v-319.625c0-35.45 28.51-64.187 63.918-64.187h480.165c35.301 0 63.918 28.706 63.918 64.187v319.625c0 35.45-28.51 64.187-63.918 64.187h-480.165z" />
<glyph unicode="&#xe910;" glyph-name="smartphone" d="M725.333 853.333h-426.667c-72.533 0-128-55.467-128-128v-682.667c0-72.533 55.467-128 128-128h426.667c72.533 0 128 55.467 128 128v682.667c0 72.533-55.467 128-128 128zM768 42.667c0-25.6-17.067-42.667-42.667-42.667h-426.667c-25.6 0-42.667 17.067-42.667 42.667v682.667c0 25.6 17.067 42.667 42.667 42.667h426.667c25.6 0 42.667-17.067 42.667-42.667v-682.667zM482.133 157.867c-8.533-8.533-12.8-17.067-12.8-29.867s4.267-21.333 12.8-29.867c8.533-8.533 17.067-12.8 29.867-12.8s21.333 4.267 29.867 12.8c8.533 8.533 12.8 21.333 12.8 29.867s-4.267 21.333-12.8 29.867c-17.067 17.067-42.667 17.067-59.733 0z" />
<glyph unicode="&#xe911;" glyph-name="phone, mobile, contact, telephone" horiz-adv-x="608" d="M48-128h512c26.464 0 48 21.536 48 48v928c0 26.464-21.536 48-48 48h-512c-26.464 0-48-21.536-48-48v-928c0-26.464 21.536-48 48-48zM32 848c0 8.832 7.168 16 16 16h512c8.832 0 16-7.168 16-16v-928c0-8.832-7.168-16-16-16h-512c-8.832 0-16 7.168-16 16v928zM80 32h448c8.832 0 16 7.168 16 16v672c0 8.832-7.168 16-16 16h-448c-8.832 0-16-7.168-16-16v-672c0-8.832 7.168-16 16-16zM96 704h416v-640h-416v640zM288-32c0-17.673 14.327-32 32-32s32 14.327 32 32c0 17.673-14.327 32-32 32s-32-14.327-32-32zM240 768h128c8.832 0 16 7.168 16 16s-7.168 16-16 16h-128c-8.832 0-16-7.168-16-16s7.168-16 16-16z" />
<glyph unicode="&#xe912;" glyph-name="camera-outline" d="M810.667 42.667h-597.333c-70.571 0-128 57.429-128 128v341.333c0 70.571 57.429 128 128 128h67.669l42.667 42.667c24.704 24.704 68.096 42.667 102.997 42.667h170.667c34.901 0 78.293-17.963 102.997-42.667l42.667-42.667h67.669c70.571 0 128-57.429 128-128v-341.333c0-70.571-57.429-128-128-128zM213.333 554.667c-23.552 0-42.667-19.115-42.667-42.667v-341.333c0-23.552 19.115-42.667 42.667-42.667h597.333c23.552 0 42.667 19.115 42.667 42.667v341.333c0 23.552-19.115 42.667-42.667 42.667h-85.333c-11.349 0-22.187 4.48-30.165 12.501l-55.168 55.168c-8.576 8.576-30.507 17.664-42.667 17.664h-170.667c-12.16 0-34.091-9.088-42.667-17.664l-55.168-55.168c-7.979-8.021-18.816-12.501-30.165-12.501h-85.333zM512 469.333c58.837 0 106.667-47.829 106.667-106.667s-47.829-106.667-106.667-106.667-106.667 47.829-106.667 106.667 47.829 106.667 106.667 106.667zM512 512c-82.517 0-149.333-66.816-149.333-149.333 0-82.432 66.816-149.333 149.333-149.333s149.333 66.901 149.333 149.333c0 82.517-66.816 149.333-149.333 149.333zM768 524.843c-30.677 0-55.467-24.832-55.467-55.509s24.789-55.424 55.467-55.424 55.467 24.747 55.467 55.424-24.789 55.509-55.467 55.509z" />
<glyph unicode="&#xe913;" glyph-name="image" d="M810.667 810.667h-597.333c-72.533 0-128-55.467-128-128v-597.333c0-72.533 55.467-128 128-128h597.333c72.533 0 128 55.467 128 128v597.333c0 72.533-55.467 128-128 128zM170.667 682.667c0 25.6 17.067 42.667 42.667 42.667h597.333c25.6 0 42.667-17.067 42.667-42.667v-324.267l-140.8 140.8c-17.067 17.067-42.667 17.067-59.733 0l-452.267-452.267c-17.067 4.267-29.867 21.333-29.867 38.4v597.333zM810.667 42.667h-494.933l366.933 366.933 170.667-170.667v-153.6c0-25.6-17.067-42.667-42.667-42.667zM362.667 426.667c59.733 0 106.667 46.933 106.667 106.667s-46.933 106.667-106.667 106.667-106.667-46.933-106.667-106.667 46.933-106.667 106.667-106.667zM362.667 554.667c12.8 0 21.333-8.533 21.333-21.333s-8.533-21.333-21.333-21.333-21.333 8.533-21.333 21.333 8.533 21.333 21.333 21.333z" />
<glyph unicode="&#xe914;" glyph-name="camera" d="M896 682.667h-149.333l-72.533 110.933c-8.533 8.533-21.333 17.067-34.133 17.067h-256c-12.8 0-25.6-8.533-34.133-17.067l-72.533-110.933h-149.333c-72.533 0-128-55.467-128-128v-469.333c0-72.533 55.467-128 128-128h768c72.533 0 128 55.467 128 128v469.333c0 72.533-55.467 128-128 128zM938.667 85.333c0-25.6-17.067-42.667-42.667-42.667h-768c-25.6 0-42.667 17.067-42.667 42.667v469.333c0 25.6 17.067 42.667 42.667 42.667h170.667c12.8 0 25.6 8.533 34.133 17.067l72.533 110.933h209.067l72.533-110.933c12.8-8.533 25.6-17.067 38.4-17.067h170.667c25.6 0 42.667-17.067 42.667-42.667v-469.333zM512 554.667c-119.467 0-213.333-93.867-213.333-213.333s93.867-213.333 213.333-213.333 213.333 93.867 213.333 213.333-93.867 213.333-213.333 213.333zM512 213.333c-72.533 0-128 55.467-128 128s55.467 128 128 128 128-55.467 128-128-55.467-128-128-128z" />
<glyph unicode="&#xe915;" glyph-name="portrait" d="M810 86v596h-596v-596h596zM810 768c46 0 86-40 86-86v-596c0-46-40-86-86-86h-596c-46 0-86 40-86 86v596c0 46 40 86 86 86h596zM704 202v-32h-384v32c0 64 128 96 192 96s192-32 192-96zM512 374c-52 0-96 44-96 96s44 96 96 96 96-44 96-96-44-96-96-96z" />
<glyph unicode="&#xe9d1;" glyph-name="eye-blocked" d="M945.942 881.942c-18.746 18.744-49.136 18.744-67.882 0l-202.164-202.164c-51.938 15.754-106.948 24.222-163.896 24.222-223.318 0-416.882-130.042-512-320 41.122-82.124 100.648-153.040 173.022-207.096l-158.962-158.962c-18.746-18.746-18.746-49.136 0-67.882 9.372-9.374 21.656-14.060 33.94-14.060s24.568 4.686 33.942 14.058l864 864c18.744 18.746 18.744 49.138 0 67.884zM416 576c42.24 0 78.082-27.294 90.92-65.196l-121.724-121.724c-37.902 12.838-65.196 48.68-65.196 90.92 0 53.020 42.98 96 96 96zM110.116 384c38.292 60.524 89.274 111.924 149.434 150.296 3.918 2.5 7.876 4.922 11.862 7.3-9.962-27.328-15.412-56.822-15.412-87.596 0-54.89 17.286-105.738 46.7-147.418l-60.924-60.924c-52.446 36.842-97.202 83.882-131.66 138.342zM768 454c0 27.166-4.256 53.334-12.102 77.898l-321.808-321.808c24.568-7.842 50.742-12.090 77.91-12.090 141.382 0 256 114.618 256 256zM830.026 606.026l-69.362-69.362c1.264-0.786 2.53-1.568 3.786-2.368 60.162-38.374 111.142-89.774 149.434-150.296-38.292-60.522-89.274-111.922-149.436-150.296-75.594-48.218-162.89-73.704-252.448-73.704-38.664 0-76.902 4.76-113.962 14.040l-76.894-76.894c59.718-21.462 123.95-33.146 190.856-33.146 223.31 0 416.876 130.042 512 320-45.022 89.916-112.118 166.396-193.974 222.026z" />
</font>
</defs>
</svg>
